<?xml version="1.0" encoding="utf-8"?>
<!-- Generator: Adobe Illustrator 21.1.0, SVG Export Plug-In . SVG Version: 6.00 Build 0)  -->
<svg version="1.1" id="Capa_1" xmlns="http://www.w3.org/2000/svg" xmlns:xlink="http://www.w3.org/1999/xlink" x="0px" y="0px"
	 viewBox="0 0 512 640.3" style="enable-background:new 0 0 512 640.3;" xml:space="preserve">
<style type="text/css">
	.st0{fill:#FFFFFF;}
</style>
<g id="XMLID_122_">
	<g>
		<path class="st0" d="M507.8,268.5c2.4-15,3.9-31.5,4.2-50c-0.1-79.3-38.1-107.3-45.4-120.5c10.8-60.1-1.8-87.4-7.6-96.7
			C437.5-6.3,384.2,21,355.1,40.2c-47.5-13.9-147.8-12.5-185.4,3.6C100.2-5.9,63.5,1.7,63.5,1.7s-23.7,42.6-6.3,104.8
			c-22.8,29.1-39.9,49.7-39.9,104.3c0,13.1,0.8,25.4,2.2,37.3c19.7,103.4,101.6,148.1,182.1,155.8c-12.1,9.2-26.7,26.6-28.7,46.8
			c-15.2,9.8-45.8,13.1-69.7,5.6C70,445.8,57.2,379.7,7.3,389.1c-10.8,2-8.7,9.2,0.7,15.2c15.2,9.9,29.6,22.1,40.6,48.4
			c8.5,20.2,26.3,56.2,82.8,56.2c22.4,0,38.1-2.6,38.1-2.6s0.4,51.4,0.4,71.4c0,23.1-31.1,29.5-31.1,40.6c0,4.4,10.3,4.8,18.6,4.8
			c16.4,0,50.4-13.6,50.4-37.6c0-19,0.3-83.1,0.3-94.3c0-24.5,13.1-32.3,13.1-32.3s1.6,130.7-3.2,148.3
			c-5.6,20.6-15.7,17.7-15.7,26.9c0,13.7,40.9,3.3,54.5-26.6c10.5-23.4,5.8-151.6,5.8-151.6l10.9-0.2c0,0,0.1,58.7-0.3,85.5
			c-0.4,27.8-3.3,62.9,13.2,79.5c10.8,10.9,44,30,44,12.6c0-10.1-23.2-18.5-23.2-46V460.8c14.1,0,17,41.6,17,41.6l5.1,77.2
			c0,0-3.4,28.2,30.4,39.9c11.9,4.2,37.5,5.3,38.7-1.7c1.2-7-30.8-17.4-31.1-39.3c-0.2-13.3,0.6-21.1,0.6-78.8
			c0-57.8-7.8-79.1-34.8-96.1C411.7,395.6,493.1,360.6,507.8,268.5z"/>
	</g>
</g>
</svg>
