<?xml version="1.0" encoding="iso-8859-1"?>
<!-- Generator: Adobe Illustrator 19.0.0, SVG Export Plug-In . SVG Version: 6.00 Build 0)  -->
<svg version="1.1" id="Layer_1" xmlns="http://www.w3.org/2000/svg" xmlns:xlink="http://www.w3.org/1999/xlink" x="0px" y="0px"
	 viewBox="0 0 512 512" style="enable-background:new 0 0 512 512;" xml:space="preserve">
<path style="fill:#666666;" d="M507.121,111.288L348.224,31.84c-5.774-2.883-12.776,1.457-12.776,7.896v353.103
	c0,3.343,1.889,6.4,4.879,7.895l158.897,79.448c5.777,2.886,12.776-1.46,12.776-7.895V119.184
	C512,115.84,510.111,112.784,507.121,111.288z"/>
<path style="fill:#ffffff;" d="M511.63,116.655c-0.698-2.334-2.33-4.277-4.51-5.366L348.224,31.841
	c-4.017-2.008-8.9-0.682-11.35,3.084L222.115,211.477c-1.901,2.925-1.901,6.697,0,9.623l114.759,176.552
	c1.632,2.508,4.419,4.017,7.401,4.017c0.074,0,0.149-0.001,0.223-0.003c3.065-0.076,5.871-1.739,7.412-4.392l158.897-273.655
	C512.03,121.509,512.328,118.99,511.63,116.655z"/>
<path style="fill:#666666;" d="M351.694,388.054L175.143,114.399c-2.124-3.29-6.161-4.792-9.912-3.682
	c-3.755,1.106-6.333,4.553-6.333,8.468v185.379c0,3.343,1.889,6.401,4.879,7.895l176.552,88.276
	c3.396,1.696,7.688,0.946,10.319-1.786C353.429,396.059,353.866,391.421,351.694,388.054z"/>
<path style="fill:#ffffff;" d="M171.672,111.288L12.776,31.84C7.001,28.955,0,33.297,0,39.736v353.103
	c0,3.343,1.889,6.4,4.879,7.895l158.897,79.448c5.777,2.886,12.776-1.46,12.776-7.895V119.184
	C176.552,115.84,174.663,112.784,171.672,111.288z"/>
<g>
</g>
<g>
</g>
<g>
</g>
<g>
</g>
<g>
</g>
<g>
</g>
<g>
</g>
<g>
</g>
<g>
</g>
<g>
</g>
<g>
</g>
<g>
</g>
<g>
</g>
<g>
</g>
<g>
</g>
</svg>
