<?xml version="1.0" encoding="utf-8"?>
<!-- Generator: Adobe Illustrator 21.1.0, SVG Export Plug-In . SVG Version: 6.00 Build 0)  -->
<svg version="1.1" id="Layer_1" xmlns="http://www.w3.org/2000/svg" xmlns:xlink="http://www.w3.org/1999/xlink" x="0px" y="0px"
	 viewBox="0 0 1366 768" style="enable-background:new 0 0 1366 768;" xml:space="preserve">
<style type="text/css">
	.st0{fill:#FFFFFF;}
	.st1{fill:#EAE8E8;}
	.st2{fill:#CDCFD1;}
	.st3{fill:#EAEAEA;}
</style>
<g>
	
		<ellipse transform="matrix(0.1736 -0.9848 0.9848 0.1736 -200.257 419.9693)" class="st0" cx="150.1" cy="329.3" rx="83.1" ry="83.1"/>
	<g>
		<path d="M89.8,294l2.8,0.5l-1.8,10.1c-0.3,1.5-0.9,2.6-1.8,3.3c-0.9,0.7-2,1-3.3,0.8c-1.4-0.2-2.4-0.8-3.1-1.7
			c-0.7-0.9-0.9-2.1-0.6-3.6l0-0.1l2.8,0.5c-0.1,0.8-0.1,1.4,0.1,1.9c0.2,0.4,0.6,0.7,1.1,0.8c0.4,0.1,0.8-0.1,1.1-0.5
			c0.3-0.4,0.6-1,0.7-1.8L89.8,294z"/>
		<path d="M103.3,308.3l-3.7-0.6l-1.4,3l-3-0.5l6.8-14l2.9,0.5l1.6,15.4l-3-0.5L103.3,308.3z M100.6,305.5l2.5,0.4l-0.4-4.9l-0.1,0
			L100.6,305.5z"/>
		<path d="M116.1,310l0,0.6l0.1,0l0.2-0.6l4.5-10.5l3,0.5l-6.8,14l-3-0.5l-1.6-15.4l3,0.5L116.1,310z"/>
		<path d="M133,313.5l-3.7-0.6l-1.4,3l-3-0.5l6.8-14l2.9,0.5l1.6,15.4l-3-0.5L133,313.5z M130.3,310.7l2.5,0.4l-0.4-4.9l-0.1,0
			L130.3,310.7z"/>
		<path d="M148.7,315.6c0.1-0.6,0-1.1-0.2-1.5c-0.2-0.4-0.7-0.8-1.4-1.3c-1.4-0.8-2.4-1.6-3.1-2.4c-0.6-0.8-0.9-1.8-0.6-3
			c0.2-1.2,0.8-2.1,1.8-2.7c1-0.6,2.2-0.8,3.5-0.6c1.4,0.3,2.5,0.9,3.2,1.8c0.7,1,1,2.1,0.7,3.5l0,0.1l-2.8-0.5
			c0.1-0.8,0.1-1.4-0.2-1.8c-0.3-0.5-0.7-0.7-1.4-0.8c-0.5-0.1-1,0-1.4,0.3c-0.4,0.3-0.6,0.7-0.7,1.3c-0.1,0.5,0,0.9,0.3,1.3
			c0.3,0.4,0.8,0.8,1.6,1.4c1.3,0.7,2.3,1.5,2.9,2.4c0.6,0.8,0.8,1.9,0.6,3.1c-0.2,1.3-0.8,2.2-1.8,2.7c-1,0.6-2.2,0.7-3.6,0.5
			c-1.4-0.2-2.5-0.8-3.4-1.8s-1.1-2.2-0.8-3.8l0-0.1l2.8,0.5c-0.2,0.9-0.1,1.6,0.2,2.1c0.3,0.5,0.8,0.8,1.5,0.9
			c0.6,0.1,1.1,0,1.5-0.3C148.4,316.6,148.6,316.2,148.7,315.6z"/>
		<path d="M167.3,318.1L167.3,318.1c-0.2,1.6-0.9,2.8-1.8,3.4s-2.2,0.8-3.8,0.5c-1.6-0.3-2.8-1-3.5-2.1c-0.8-1.1-1-2.5-0.7-4.2
			l0.8-4.4c0.3-1.7,1-3,2.1-3.7c1.1-0.8,2.4-1,3.9-0.8c1.6,0.3,2.8,0.9,3.5,1.8c0.7,0.9,0.9,2.2,0.6,3.8l0,0.1l-2.8-0.5
			c0.2-0.9,0.1-1.6-0.2-2.1c-0.3-0.4-0.8-0.7-1.6-0.9c-0.7-0.1-1.3,0-1.7,0.5c-0.4,0.5-0.8,1.2-1,2.3l-0.8,4.4
			c-0.2,1.1-0.1,1.9,0.2,2.5c0.3,0.6,0.8,0.9,1.6,1.1c0.7,0.1,1.2,0,1.6-0.3c0.4-0.3,0.6-1,0.8-1.9L167.3,318.1z"/>
		<path d="M176.3,318.4l-1,5.9l-2.8-0.5l2.6-14.7l4.4,0.8c1.5,0.3,2.5,0.8,3.2,1.7s0.9,2,0.7,3.4c-0.1,0.8-0.4,1.4-0.9,1.9
			c-0.5,0.5-1,0.9-1.8,1.1c0.7,0.4,1.2,0.9,1.4,1.6c0.2,0.7,0.3,1.4,0.1,2.3l-0.2,1.1c-0.1,0.4-0.1,0.9-0.1,1.3
			c0,0.5,0.1,0.8,0.3,1.1l0,0.2l-2.9-0.5c-0.2-0.3-0.3-0.6-0.3-1.1s0.1-1,0.2-1.5l0.2-1c0.1-0.7,0.1-1.4-0.2-1.8
			c-0.2-0.5-0.6-0.7-1.2-0.9L176.3,318.4z M176.7,316.1l1.5,0.3c0.6,0.1,1.1,0,1.5-0.3c0.4-0.3,0.6-0.8,0.8-1.5
			c0.1-0.7,0.1-1.3-0.2-1.7c-0.2-0.5-0.7-0.7-1.3-0.9l-1.6-0.3L176.7,316.1z"/>
		<path d="M191,327l-2.8-0.5l2.6-14.7l2.8,0.5L191,327z"/>
		<path d="M201.4,323.4l-0.9,5.3l-2.8-0.5l2.6-14.7l4.9,0.9c1.5,0.3,2.6,0.9,3.3,1.9c0.7,1,0.9,2.2,0.7,3.6
			c-0.2,1.4-0.9,2.5-1.9,3.2s-2.3,0.9-3.7,0.7L201.4,323.4z M201.8,321.1l2.1,0.4c0.6,0.1,1.2,0,1.6-0.4c0.4-0.4,0.7-1,0.8-1.7
			c0.1-0.7,0.1-1.3-0.2-1.9s-0.7-0.8-1.3-1l-2.1-0.4L201.8,321.1z"/>
		<path d="M224.3,320l-3.5-0.6l-2.2,12.5l-2.9-0.5l2.2-12.5l-3.4-0.6l0.4-2.2l9.7,1.7L224.3,320z"/>
		<path d="M96.9,334.6l-5.7-1l-1,5.5l6.9,1.2l-0.5,2.8l-10.5-1.9l3.3-18.8l10.5,1.9l-0.5,2.9l-6.9-1.2l-0.8,4.8l5.7,1L96.9,334.6z"
			/>
		<path d="M113.3,341c0.1-0.7,0-1.4-0.3-1.9c-0.3-0.5-0.9-1-1.8-1.6c-1.8-1-3.1-2-3.9-3.1c-0.8-1-1.1-2.3-0.8-3.9
			c0.3-1.5,1-2.7,2.3-3.5c1.3-0.8,2.8-1,4.5-0.7c1.8,0.3,3.2,1.1,4.1,2.3c0.9,1.2,1.2,2.7,0.9,4.4l0,0.1l-3.5-0.6
			c0.2-1,0.1-1.7-0.3-2.3c-0.3-0.6-0.9-0.9-1.7-1.1c-0.7-0.1-1.3,0-1.7,0.4c-0.5,0.4-0.8,0.9-0.9,1.6c-0.1,0.6,0,1.2,0.4,1.7
			s1,1.1,2,1.8c1.7,0.9,2.9,1.9,3.7,3c0.8,1.1,1,2.4,0.7,4c-0.3,1.6-1.1,2.8-2.3,3.5c-1.3,0.7-2.8,0.9-4.6,0.6
			c-1.8-0.3-3.2-1.1-4.3-2.3c-1.1-1.2-1.4-2.8-1-4.9l0-0.1l3.5,0.6c-0.2,1.2-0.1,2.1,0.3,2.7c0.4,0.6,1,1,2,1.1
			c0.8,0.1,1.4,0,1.9-0.3C112.9,342.3,113.2,341.7,113.3,341z"/>
		<path d="M133.6,330c0.7,0.1,1.3,0.3,1.8,0.5c0.5,0.2,1,0.5,1.6,0.9l-1.1,2.6c-0.5-0.3-0.9-0.5-1.3-0.7c-0.4-0.2-0.9-0.3-1.4-0.4
			c-1-0.2-1.8,0.1-2.6,0.8c-0.7,0.7-1.2,1.9-1.5,3.4l-0.1,0.6c0.5-0.4,1.1-0.7,1.8-0.8c0.7-0.1,1.4-0.2,2.1,0c1.4,0.3,2.5,1,3.1,2.3
			c0.6,1.3,0.7,2.9,0.4,4.7c-0.3,1.9-1.1,3.3-2.4,4.3c-1.3,1-2.8,1.3-4.5,1c-1.8-0.3-3.1-1.2-4-2.8c-0.9-1.5-1.1-3.5-0.7-5.8
			l0.7-4.1c0.4-2.4,1.4-4.2,2.9-5.3C129.9,330,131.6,329.6,133.6,330z M131.1,339.4c-0.6-0.1-1.1-0.1-1.5,0
			c-0.4,0.1-0.8,0.4-1.1,0.7l-0.2,1.2c-0.3,1.5-0.2,2.6,0.1,3.5c0.3,0.9,0.8,1.4,1.6,1.5c0.6,0.1,1.2-0.1,1.7-0.7
			c0.5-0.6,0.8-1.4,1-2.4c0.2-1.1,0.1-1.9-0.1-2.6C132.3,339.9,131.8,339.5,131.1,339.4z"/>
		<path d="M144.6,353.2l-3.5-0.6l9.3-19.4l3.6,0.6L144.6,353.2z"/>
		<path d="M168.4,347.2l-5.7-1l-1,5.5l6.9,1.2l-0.5,2.8l-10.5-1.9l3.3-18.8l10.5,1.9l-0.5,2.9l-6.9-1.2l-0.8,4.8l5.7,1L168.4,347.2z
			"/>
		<path d="M184.8,353.6c0.1-0.7,0-1.4-0.3-1.9c-0.3-0.5-0.9-1-1.8-1.6c-1.8-1-3.1-2-3.9-3.1c-0.8-1-1.1-2.3-0.8-3.9
			c0.3-1.5,1-2.7,2.3-3.5c1.3-0.8,2.8-1,4.5-0.7c1.8,0.3,3.2,1.1,4.1,2.3s1.2,2.7,0.9,4.4l0,0.1l-3.5-0.6c0.2-1,0.1-1.7-0.3-2.3
			c-0.3-0.6-0.9-0.9-1.7-1.1c-0.7-0.1-1.3,0-1.7,0.4c-0.5,0.4-0.8,0.9-0.9,1.6c-0.1,0.6,0,1.2,0.4,1.7c0.4,0.5,1,1.1,2,1.8
			c1.7,0.9,2.9,1.9,3.7,3c0.8,1.1,1,2.4,0.7,4c-0.3,1.6-1.1,2.8-2.3,3.5s-2.8,0.9-4.6,0.6c-1.8-0.3-3.2-1.1-4.3-2.3
			c-1.1-1.2-1.4-2.8-1-4.9l0-0.1l3.5,0.6c-0.2,1.2-0.1,2.1,0.3,2.7c0.4,0.6,1,1,2,1.1c0.8,0.1,1.4,0,1.9-0.3
			C184.4,354.9,184.7,354.3,184.8,353.6z"/>
		<path d="M209.5,346.6c-2.3,2-3.9,3.9-5,5.8c-1,1.9-1.8,4.2-2.3,7l-0.4,2.3l-3.7-0.6l0.4-2.3c0.5-2.6,1.3-5,2.5-7
			c1.2-2,2.8-4,4.8-5.7l-8.5-1.5l0.5-2.9l12,2.1L209.5,346.6z"/>
	</g>
</g>
<g>
	
		<ellipse transform="matrix(0.3409 -0.9401 0.9401 0.3409 232.1289 636.1948)" class="st0" cx="569.8" cy="152.6" rx="82.4" ry="82.4"/>
	<g>
		<g>
			<path d="M531.9,138.3l-4.4-1.6l3.4-9.4l-7.3-2.6l-3.4,9.4l-4.4-1.6l8.2-22.6l4.4,1.6l-3.5,9.7l7.3,2.6l3.5-9.7l4.4,1.6
				L531.9,138.3z"/>
			<path d="M561.8,127.5l-5.3-1.9l-6.9,19.1l-4.4-1.6l6.9-19.1l-5.2-1.9l1.2-3.4l14.8,5.4L561.8,127.5z"/>
			<path d="M575.2,147.5L575.2,147.5l10.4-15.2l5.7,2.1l-8.2,22.6l-4.3-1.6l5.2-14.2l-0.1,0l-9.2,12.8l-2.9-1.1l1.1-15.6l-0.1,0
				l-5.1,14.1l-4.4-1.6l8.2-22.6l5.7,2.1L575.2,147.5z"/>
			<path d="M598.5,158.6l8.4,3.1l-1.2,3.4l-12.8-4.6l8.2-22.6l4.4,1.6L598.5,158.6z"/>
			<path d="M618.5,158.5l5.7-12.2l11.6,4.2l-1.3,3.5l-8-2.9l-2.5,5.3c0.5-0.2,1.1-0.3,1.7-0.3c0.7,0,1.3,0.1,2,0.3
				c1.9,0.7,3.1,1.8,3.7,3.5c0.5,1.7,0.4,3.7-0.5,6.1c-0.8,2.2-2,3.8-3.7,4.8c-1.6,1-3.7,1.1-6,0.2c-1.9-0.7-3.3-1.8-4.3-3.4
				c-1-1.6-1.1-3.3-0.3-5.2l0.1-0.1l4.3,1.3c-0.4,1-0.4,1.8-0.1,2.5c0.3,0.7,0.8,1.2,1.6,1.5c0.9,0.3,1.7,0.2,2.3-0.3
				c0.7-0.6,1.2-1.5,1.7-2.9c0.5-1.3,0.6-2.5,0.5-3.4c-0.2-0.9-0.7-1.6-1.6-1.9c-0.7-0.3-1.3-0.3-1.8-0.1c-0.5,0.2-0.9,0.6-1.3,1.1
				L618.5,158.5z"/>
		</g>
		<g>
			<path d="M520.9,160l-2.5,6.9l-3.7-1.3l6.9-19.1l6.4,2.3c1.9,0.7,3.2,1.8,3.9,3.3c0.7,1.5,0.7,3.2,0.1,5c-0.7,1.8-1.8,3.1-3.3,3.8
				c-1.5,0.7-3.2,0.7-5.2,0L520.9,160z M522,157.1l2.7,1c0.8,0.3,1.6,0.2,2.2-0.2c0.6-0.4,1.1-1.1,1.5-2c0.3-0.9,0.4-1.8,0.2-2.6
				c-0.2-0.8-0.7-1.3-1.6-1.6l-2.7-1L522,157.1z"/>
			<path d="M555.4,158.7l-4.5,12.5c-0.8,2.2-2,3.6-3.7,4.4c-1.7,0.8-3.5,0.8-5.5,0.1c-2-0.7-3.4-1.9-4.2-3.6c-0.8-1.7-0.8-3.6,0-5.8
				l4.5-12.5l3.7,1.3l-4.5,12.5c-0.5,1.3-0.6,2.4-0.3,3.3c0.3,0.9,0.9,1.5,1.8,1.8c1,0.3,1.8,0.3,2.6-0.2c0.8-0.5,1.4-1.4,1.9-2.7
				l4.5-12.5L555.4,158.7z"/>
			<path d="M570.3,182.9c-0.8,0.6-1.8,0.9-3.1,1.1c-1.2,0.2-2.7,0-4.3-0.6c-2.1-0.7-3.5-2-4.3-3.6c-0.8-1.7-0.8-3.6,0-5.8l2.1-5.8
				c0.8-2.2,2-3.7,3.7-4.5c1.7-0.8,3.5-0.8,5.5-0.1c2.1,0.8,3.5,1.8,4.2,3.2c0.7,1.4,0.7,3,0,4.8l-0.1,0.1l-3.5-1.3
				c0.4-1,0.4-1.8,0.1-2.4c-0.3-0.6-0.9-1.1-1.7-1.4c-1-0.3-1.8-0.3-2.6,0.2c-0.8,0.5-1.4,1.4-1.9,2.7l-2.1,5.8
				c-0.5,1.4-0.6,2.5-0.3,3.3c0.3,0.9,1,1.5,2,1.8c0.7,0.3,1.3,0.4,1.8,0.4c0.5,0,0.9-0.1,1.2-0.3l1.4-3.9l-2.9-1.1l0.9-2.6l6.6,2.4
				L570.3,182.9z"/>
			<path d="M590.8,171.5l3.7,1.3l-4.8,13.2c-0.7,1.9-1.7,3.2-3.2,4c-1.4,0.8-2.9,0.8-4.5,0.3c-1.8-0.7-3-1.7-3.7-3
				c-0.7-1.4-0.7-3,0.1-4.9l0.1-0.1l3.6,1.3c-0.4,1-0.5,1.9-0.2,2.5c0.2,0.6,0.6,1.1,1.3,1.3c0.5,0.2,1,0,1.6-0.4
				c0.5-0.5,1-1.2,1.4-2.3L590.8,171.5z"/>
			<path d="M606.1,193.1c0.3-0.8,0.3-1.4,0.1-2c-0.2-0.6-0.8-1.3-1.6-2.1c-1.7-1.4-2.9-2.7-3.6-4c-0.7-1.2-0.7-2.6-0.2-4.2
				c0.6-1.6,1.6-2.6,3.1-3.2c1.5-0.6,3.1-0.5,4.9,0.1c1.9,0.7,3.2,1.7,3.9,3.2c0.7,1.5,0.8,3.1,0.1,4.8l-0.1,0.1l-3.6-1.3
				c0.4-1,0.4-1.8,0.2-2.5c-0.3-0.7-0.8-1.2-1.6-1.5c-0.7-0.3-1.3-0.2-1.9,0.1c-0.6,0.3-1,0.8-1.2,1.5c-0.2,0.6-0.2,1.3,0.1,1.8
				c0.3,0.6,0.9,1.3,1.8,2.2c1.6,1.3,2.7,2.6,3.4,3.8c0.6,1.3,0.6,2.7,0.1,4.3c-0.6,1.6-1.6,2.7-3.1,3.3c-1.5,0.5-3.1,0.5-4.9-0.2
				c-1.8-0.7-3.2-1.7-4.1-3.2c-0.9-1.5-1-3.2-0.2-5.3l0.1-0.1l3.6,1.3c-0.4,1.2-0.5,2.2-0.2,2.9c0.3,0.7,0.9,1.2,1.9,1.6
				c0.8,0.3,1.5,0.3,2,0C605.5,194.3,605.9,193.8,606.1,193.1z"/>
		</g>
	</g>
</g>
<g>
	
		<ellipse transform="matrix(0.1736 -0.9848 0.9848 0.1736 153.7294 428.6013)" class="st1" cx="332.3" cy="122.7" rx="77.6" ry="77.6"/>
	<g>
		<g>
			<path d="M288.8,141.1c0.2-1.1,0.1-2.1-0.4-2.8c-0.5-0.8-1.4-1.6-2.8-2.5c-2.7-1.5-4.7-3.1-6-4.6c-1.2-1.6-1.7-3.5-1.2-5.8
				c0.4-2.3,1.6-4.1,3.5-5.2c1.9-1.2,4.2-1.5,6.8-1.1c2.8,0.5,4.8,1.7,6.2,3.5c1.4,1.9,1.8,4.1,1.3,6.7l-0.1,0.1l-5.3-0.9
				c0.3-1.5,0.1-2.6-0.4-3.5c-0.5-0.9-1.4-1.4-2.6-1.6c-1.1-0.2-1.9,0-2.6,0.6s-1.2,1.4-1.3,2.4c-0.2,1,0,1.8,0.6,2.6
				c0.6,0.7,1.6,1.6,3.1,2.6c2.6,1.4,4.5,2.9,5.6,4.5c1.2,1.6,1.5,3.6,1.1,6c-0.4,2.4-1.6,4.2-3.5,5.3c-1.9,1.1-4.2,1.4-6.9,0.9
				c-2.7-0.5-4.9-1.6-6.5-3.5c-1.6-1.8-2.2-4.3-1.6-7.3l0.1-0.1l5.4,0.9c-0.3,1.8-0.2,3.1,0.4,4c0.6,0.9,1.6,1.5,3,1.7
				c1.2,0.2,2.1,0,2.8-0.5C288.2,143,288.7,142.2,288.8,141.1z"/>
			<path d="M318.3,147.6l-7.1-1.3l-2.7,5.9l-5.7-1l13.1-27l5.7,1l3,29.8l-5.8-1L318.3,147.6z M313.1,142.2l4.8,0.9l-0.8-9.4l-0.1,0
				L313.1,142.2z"/>
			<path d="M348.6,151.7c0.2-1.1,0.1-2.1-0.4-2.8c-0.5-0.8-1.4-1.6-2.8-2.5c-2.7-1.5-4.7-3.1-6-4.6c-1.2-1.6-1.7-3.5-1.2-5.8
				c0.4-2.3,1.6-4.1,3.5-5.2c1.9-1.2,4.2-1.5,6.8-1.1c2.8,0.5,4.8,1.7,6.2,3.5c1.4,1.9,1.8,4.1,1.3,6.7l-0.1,0.1l-5.3-0.9
				c0.3-1.5,0.1-2.6-0.4-3.5c-0.5-0.9-1.4-1.4-2.6-1.6c-1.1-0.2-1.9,0-2.6,0.6c-0.7,0.6-1.2,1.4-1.3,2.4c-0.2,1,0,1.8,0.6,2.6
				c0.6,0.7,1.6,1.6,3.1,2.6c2.6,1.4,4.5,2.9,5.6,4.5c1.2,1.6,1.5,3.6,1.1,6c-0.4,2.4-1.6,4.2-3.5,5.3c-1.9,1.1-4.2,1.4-6.9,0.9
				c-2.7-0.5-4.9-1.6-6.5-3.5c-1.6-1.8-2.2-4.3-1.6-7.3l0.1-0.1l5.4,0.9c-0.3,1.8-0.2,3.1,0.4,4s1.6,1.5,3,1.7
				c1.2,0.2,2.1,0,2.8-0.5C348,153.6,348.4,152.8,348.6,151.7z"/>
			<path d="M378.2,156.9c0.2-1.1,0.1-2.1-0.4-2.8c-0.5-0.8-1.4-1.6-2.8-2.5c-2.7-1.5-4.7-3.1-6-4.6c-1.2-1.6-1.7-3.5-1.2-5.8
				c0.4-2.3,1.6-4.1,3.5-5.2c1.9-1.2,4.2-1.5,6.8-1.1c2.8,0.5,4.8,1.7,6.2,3.5c1.4,1.9,1.8,4.1,1.3,6.7l-0.1,0.1l-5.3-0.9
				c0.3-1.5,0.1-2.6-0.4-3.5c-0.5-0.9-1.4-1.4-2.6-1.6c-1.1-0.2-1.9,0-2.6,0.6s-1.2,1.4-1.3,2.4c-0.2,1,0,1.8,0.6,2.6
				c0.6,0.7,1.6,1.6,3.1,2.6c2.6,1.4,4.5,2.9,5.6,4.5c1.2,1.6,1.5,3.6,1.1,6c-0.4,2.4-1.6,4.2-3.5,5.3c-1.9,1.1-4.2,1.4-6.9,0.9
				c-2.7-0.5-4.9-1.6-6.5-3.5c-1.6-1.8-2.2-4.3-1.6-7.3l0.1-0.1l5.4,0.9c-0.3,1.8-0.2,3.1,0.4,4c0.6,0.9,1.6,1.5,3,1.7
				c1.2,0.2,2.1,0,2.8-0.5C377.6,158.8,378,158,378.2,156.9z"/>
		</g>
		<g>
			<path d="M305.3,101.3l0,0.1c-0.5,2.9-1.6,4.9-3.4,6.1c-1.8,1.2-4.1,1.5-6.9,1c-2.9-0.5-5.1-1.8-6.5-3.8s-1.8-4.6-1.3-7.8l1.4-8
				c0.6-3.1,1.8-5.4,3.8-6.9c2-1.4,4.3-1.9,7.1-1.4c3,0.5,5.1,1.6,6.4,3.4c1.3,1.7,1.7,4,1.2,6.9l-0.1,0.1l-5.1-0.9
				c0.3-1.7,0.2-3-0.3-3.8c-0.5-0.8-1.5-1.3-2.9-1.6c-1.3-0.2-2.4,0.1-3.2,0.9c-0.8,0.8-1.4,2.2-1.8,4.2l-1.4,8.1
				c-0.3,2-0.3,3.5,0.3,4.6c0.5,1.1,1.5,1.7,2.9,2c1.3,0.2,2.3,0.1,3-0.5c0.7-0.6,1.2-1.8,1.5-3.5L305.3,101.3z"/>
			<path d="M327.9,106.7c0.2-1.1,0.1-2-0.4-2.7c-0.4-0.7-1.3-1.5-2.6-2.3c-2.6-1.5-4.5-2.9-5.7-4.4c-1.2-1.5-1.6-3.3-1.2-5.6
				c0.4-2.2,1.5-3.9,3.3-5c1.8-1.1,4-1.4,6.5-1c2.6,0.5,4.6,1.6,5.9,3.3c1.3,1.8,1.8,3.9,1.3,6.4l-0.1,0.1l-5.1-0.9
				c0.2-1.4,0.1-2.5-0.4-3.3c-0.5-0.8-1.3-1.4-2.5-1.6c-1-0.2-1.8,0-2.5,0.6s-1.1,1.3-1.3,2.3c-0.2,0.9,0,1.7,0.5,2.4
				c0.5,0.7,1.5,1.5,2.9,2.5c2.5,1.3,4.2,2.8,5.3,4.3c1.1,1.6,1.5,3.5,1.1,5.7c-0.4,2.3-1.5,4-3.3,5c-1.8,1-4,1.3-6.6,0.9
				c-2.6-0.5-4.6-1.6-6.2-3.3c-1.6-1.7-2.1-4.1-1.5-7l0.1-0.1l5.1,0.9c-0.3,1.7-0.2,3,0.4,3.8c0.6,0.9,1.5,1.4,2.8,1.6
				c1.1,0.2,2,0,2.7-0.5C327.3,108.5,327.7,107.8,327.9,106.7z"/>
			<path d="M356.1,111.7c0.2-1.1,0.1-2-0.4-2.7c-0.4-0.7-1.3-1.5-2.6-2.3c-2.6-1.5-4.5-2.9-5.7-4.4s-1.6-3.3-1.2-5.6
				c0.4-2.2,1.5-3.9,3.3-5c1.8-1.1,4-1.4,6.5-1c2.6,0.5,4.6,1.6,5.9,3.3c1.3,1.8,1.8,3.9,1.3,6.4l-0.1,0.1l-5.1-0.9
				c0.2-1.4,0.1-2.5-0.4-3.3c-0.5-0.8-1.3-1.4-2.5-1.6c-1-0.2-1.8,0-2.5,0.6c-0.7,0.6-1.1,1.3-1.3,2.3c-0.2,0.9,0,1.7,0.5,2.4
				c0.5,0.7,1.5,1.5,2.9,2.5c2.5,1.3,4.2,2.8,5.3,4.3c1.1,1.6,1.5,3.5,1.1,5.7c-0.4,2.3-1.5,4-3.3,5c-1.8,1-4,1.3-6.6,0.9
				c-2.6-0.5-4.6-1.6-6.2-3.3c-1.6-1.7-2.1-4.1-1.5-7l0.1-0.1l5.1,0.9c-0.3,1.7-0.2,3,0.4,3.8c0.6,0.9,1.5,1.4,2.8,1.6
				c1.1,0.2,2,0,2.7-0.5C355.4,113.5,355.9,112.7,356.1,111.7z"/>
			<path d="M381.6,107.1c1.1,0.2,1.9,0,2.6-0.6c0.7-0.6,1.1-1.5,1.3-2.7c0.2-1,0.1-1.9-0.4-2.7c-0.4-0.8-1.1-1.3-2.1-1.4
				c-0.8-0.1-1.5,0-2.2,0.6c-0.7,0.5-1.1,1.3-1.2,2.2l-5.1-0.9l0-0.1c0.3-2.1,1.4-3.7,3.2-4.8s3.8-1.4,6.1-1
				c2.6,0.5,4.5,1.5,5.8,3.1c1.3,1.6,1.7,3.6,1.3,6.1c-0.2,1.2-0.8,2.3-1.6,3.3c-0.9,0.9-1.9,1.6-3.2,1.9c1.2,0.8,2.1,1.7,2.6,3
				c0.5,1.2,0.6,2.6,0.4,4.1c-0.4,2.5-1.6,4.2-3.5,5.4c-1.9,1.1-4.1,1.4-6.7,1c-2.2-0.4-4.1-1.4-5.5-3c-1.4-1.6-1.9-3.7-1.4-6.1
				l0.1-0.1l5.1,0.9c-0.2,1.1,0,2,0.4,2.8c0.5,0.8,1.2,1.3,2.1,1.5c1.1,0.2,2,0,2.8-0.6c0.8-0.6,1.3-1.5,1.5-2.6
				c0.3-1.5,0.1-2.6-0.4-3.4c-0.5-0.8-1.3-1.3-2.5-1.5l-2.7-0.5l0.7-4L381.6,107.1z"/>
		</g>
	</g>
</g>
<g>
	<ellipse transform="matrix(0.3775 -0.926 0.926 0.3775 -58.1979 241.9855)" class="st1" cx="150.9" cy="164.3" rx="115" ry="115"/>
	<g>
		<path d="M82.5,121.9l-5.9-2.4l-3.4,4.6l-4.8-1.9l16.4-20.9l4.8,1.9l-2.9,26.4l-4.8-2L82.5,121.9z M79,116.3l4,1.6l1.1-8.3l-0.1,0
			L79,116.3z"/>
		<path d="M111.9,139.9l-4.6-1.9l-1.4-18.2l-0.1,0l-6.2,15.1l-4.6-1.9l9.7-23.7l4.6,1.9l1.3,18.2l0.1,0l6.2-15.1l4.6,1.9
			L111.9,139.9z"/>
		<path d="M139.4,147.4c-1.1,0.7-2.4,1.1-3.9,1.2c-1.6,0.2-3.3-0.2-5.4-1c-2.6-1-4.3-2.6-5.2-4.7c-0.9-2.1-0.8-4.6,0.3-7.3l2.9-7.2
			c1.1-2.7,2.7-4.5,4.8-5.4c2.1-0.9,4.4-0.8,6.9,0.2c2.6,1.1,4.3,2.5,5.1,4.2c0.8,1.8,0.7,3.8-0.2,6l-0.1,0.1l-4.3-1.8
			c0.5-1.2,0.6-2.2,0.3-3c-0.3-0.8-1-1.4-2.1-1.8c-1.2-0.5-2.3-0.4-3.3,0.1c-1,0.6-1.8,1.7-2.5,3.3l-2.9,7.2
			c-0.7,1.7-0.9,3.1-0.5,4.2c0.3,1.1,1.1,1.9,2.4,2.4c0.9,0.4,1.6,0.5,2.2,0.5c0.6,0,1.1-0.1,1.5-0.4l1.9-4.8l-3.6-1.5l1.3-3.2
			l8.2,3.3L139.4,147.4z"/>
		<path d="M174.2,137.6l-6.3,15.5c-1.1,2.7-2.7,4.5-4.9,5.4c-2.2,0.9-4.5,0.8-7-0.2c-2.5-1-4.2-2.6-5.1-4.7
			c-0.9-2.1-0.8-4.6,0.3-7.2l6.3-15.5l4.6,1.9l-6.3,15.5c-0.7,1.6-0.8,3-0.5,4.1c0.3,1.1,1.1,1.9,2.2,2.4c1.2,0.5,2.3,0.4,3.3-0.1
			c1-0.6,1.8-1.7,2.5-3.3l6.3-15.5L174.2,137.6z"/>
		<path d="M180.8,163.7l8.8,3.6l-1.5,3.6l-13.4-5.5l9.7-23.7l4.6,1.9L180.8,163.7z"/>
		<path d="M210.5,174.1l-5.9-2.4l-3.4,4.6l-4.8-1.9l16.4-20.9l4.8,1.9l-2.9,26.4l-4.8-2L210.5,174.1z M206.9,168.4l4,1.6l1.1-8.3
			l-0.1,0L206.9,168.4z"/>
		<path d="M231.5,177.5l-3.9,9.5l-4.6-1.9l9.6-23.7l7.1,2.9c2.4,1,4,2.3,4.8,4.1c0.9,1.8,0.8,3.8-0.1,6c-0.5,1.2-1.2,2.2-2.2,2.8
			c-0.9,0.7-2,1-3.3,1.1c1.1,0.9,1.7,2,1.8,3.1c0.2,1.2-0.1,2.5-0.6,3.9l-0.7,1.7c-0.3,0.7-0.5,1.4-0.6,2.2
			c-0.1,0.8-0.1,1.4,0.2,1.9l-0.1,0.3l-4.8-1.9c-0.2-0.5-0.2-1.2,0-2c0.2-0.8,0.5-1.6,0.8-2.4l0.7-1.7c0.5-1.2,0.6-2.2,0.4-3.1
			c-0.2-0.9-0.8-1.5-1.7-1.9L231.5,177.5z M233,174l2.5,1c1,0.4,1.9,0.4,2.6,0c0.8-0.4,1.4-1.1,1.8-2.2c0.5-1.1,0.6-2.1,0.3-2.9
			s-0.9-1.5-1.8-1.9l-2.5-1L233,174z"/>
		<path d="M103.8,155.5l4.6,1.9l-6.7,16.3c-1,2.4-2.4,4-4.2,4.8c-1.8,0.9-3.7,0.9-5.7,0.1c-2.2-0.9-3.7-2.2-4.5-4
			c-0.8-1.8-0.7-3.8,0.3-6.2l0.1-0.1l4.4,1.8c-0.5,1.3-0.7,2.3-0.4,3.2c0.2,0.8,0.8,1.4,1.6,1.7c0.6,0.3,1.3,0.1,2-0.5
			c0.7-0.6,1.3-1.5,1.8-2.8L103.8,155.5z"/>
		<path d="M121.9,183.4c0.4-0.9,0.4-1.8,0.2-2.5c-0.3-0.7-0.9-1.6-1.9-2.7c-2.1-1.8-3.5-3.6-4.3-5.1c-0.8-1.6-0.8-3.4,0-5.3
			c0.8-1.9,2.1-3.2,4-3.9c1.9-0.6,3.9-0.5,6.1,0.4c2.3,0.9,3.9,2.3,4.8,4.2c0.9,1.9,0.8,3.9-0.1,6.1l-0.1,0.1l-4.5-1.8
			c0.5-1.2,0.6-2.3,0.3-3.1c-0.3-0.9-0.9-1.5-2-1.9c-0.9-0.4-1.7-0.3-2.4,0c-0.7,0.4-1.3,1-1.6,1.9c-0.3,0.8-0.3,1.6,0,2.3
			s1.1,1.7,2.2,2.9c2,1.7,3.3,3.4,4,5c0.7,1.6,0.7,3.4-0.1,5.4c-0.8,2-2.2,3.3-4,3.9c-1.9,0.6-3.9,0.4-6.2-0.5
			c-2.2-0.9-3.9-2.3-5-4.2s-1.1-4.1,0-6.7l0.1-0.1l4.5,1.8c-0.6,1.5-0.7,2.7-0.4,3.6c0.3,0.9,1.1,1.6,2.3,2.1c1,0.4,1.8,0.4,2.6,0.1
			C121,184.9,121.6,184.3,121.9,183.4z"/>
		<path d="M135.3,198.4l-4.5-1.8l17.7-22.8l4.5,1.8L135.3,198.4z"/>
		<path d="M168.1,199.1l2.3,0.9l-1.5,3.6l-2.3-0.9l-2.1,5.2l-4.6-1.9l2.1-5.2l-8.5-3.5l0.9-2.9l15.1-12.1l4.6,1.9L168.1,199.1z
			 M158.8,195.3l4.7,1.9l3.5-8.6l-0.1-0.1l-0.8,0.8L158.8,195.3z"/>
		<path d="M190.1,203.1l5.1,2.1l-1.6,4l-5.1-2.1l-2.7,6.7l-4.3-1.8l2.7-6.7l-5.2-2.1l1.6-4l5.2,2.1l2.7-6.5l4.3,1.8L190.1,203.1z"/>
	</g>
</g>
<g>
	<circle class="st1" cx="401.5" cy="268" r="89.7"/>
	<g>
		<path d="M361.7,252.2V270c0,3.1-0.9,5.5-2.7,7.3c-1.8,1.7-4.1,2.6-7,2.6c-2.8,0-5.2-0.9-6.9-2.6c-1.8-1.7-2.7-4.2-2.7-7.2v-17.8
			h5.3V270c0,1.9,0.4,3.3,1.2,4.3c0.8,1,1.8,1.5,3.2,1.5c1.4,0,2.4-0.5,3.2-1.5c0.8-1,1.2-2.4,1.2-4.3v-17.8H361.7z"/>
		<path d="M378.9,279.5h-5.3v-27.3h5.3V279.5z"/>
		<path d="M394,281.8h-5.2l8.3-29.6h5.2L394,281.8z"/>
		<path d="M431.4,252.2V270c0,3.1-0.9,5.5-2.7,7.3c-1.8,1.7-4.1,2.6-7,2.6c-2.8,0-5.2-0.9-6.9-2.6c-1.8-1.7-2.7-4.2-2.7-7.2v-17.8
			h5.3V270c0,1.9,0.4,3.3,1.2,4.3c0.8,1,1.8,1.5,3.2,1.5c1.4,0,2.4-0.5,3.2-1.5c0.8-1,1.2-2.4,1.2-4.3v-17.8H431.4z"/>
		<path d="M451.6,261.8h0.1l3.9-9.7h6.1l-6.8,13.5l7.2,13.8h-6.4l-4-9.9h-0.1l-4,9.9h-6.2l7-13.8l-6.8-13.5h6.1L451.6,261.8z"/>
	</g>
</g>
<g>
	<circle class="st0" cx="568.4" cy="328.2" r="97.5"/>
	<g>
		<path d="M489.6,317.4v5.5h-3v-15.3h5.1c1.5,0,2.7,0.4,3.6,1.3c0.9,0.9,1.3,2.1,1.3,3.5c0,1.5-0.4,2.6-1.3,3.5
			c-0.9,0.9-2.1,1.3-3.6,1.3H489.6z M489.6,315.1h2.1c0.7,0,1.2-0.2,1.5-0.7c0.3-0.5,0.5-1.1,0.5-1.8c0-0.7-0.2-1.4-0.5-1.8
			c-0.3-0.5-0.9-0.7-1.5-0.7h-2.1V315.1z"/>
		<path d="M505.8,316.8v6.1h-3v-15.2h4.6c1.5,0,2.7,0.4,3.6,1.2c0.9,0.8,1.3,1.9,1.3,3.3c0,0.8-0.2,1.5-0.6,2.1
			c-0.4,0.6-0.9,1-1.6,1.4c0.8,0.3,1.4,0.7,1.7,1.3c0.3,0.6,0.5,1.4,0.5,2.3v1.1c0,0.4,0,0.9,0.1,1.3c0.1,0.5,0.3,0.8,0.5,1v0.2H510
			c-0.2-0.2-0.4-0.6-0.5-1.1c-0.1-0.5-0.1-1-0.1-1.5v-1.1c0-0.8-0.2-1.4-0.5-1.8c-0.3-0.4-0.8-0.6-1.4-0.6H505.8z M505.8,314.5h1.6
			c0.6,0,1.1-0.2,1.5-0.6c0.3-0.4,0.5-0.9,0.5-1.6c0-0.7-0.2-1.3-0.5-1.7c-0.3-0.4-0.8-0.6-1.4-0.6h-1.6V314.5z"/>
		<path d="M529.8,317.5c0,1.8-0.5,3.2-1.5,4.2c-1,1-2.4,1.5-4,1.5c-1.7,0-3-0.5-4-1.5c-1-1-1.5-2.4-1.5-4.2v-4.3
			c0-1.8,0.5-3.2,1.5-4.2c1-1,2.3-1.5,4-1.5c1.7,0,3,0.5,4,1.5c1,1,1.5,2.4,1.5,4.2V317.5z M526.9,313.2c0-1.1-0.2-1.9-0.7-2.5
			c-0.5-0.6-1.1-0.8-2-0.8c-0.9,0-1.5,0.3-1.9,0.8c-0.4,0.6-0.6,1.4-0.6,2.5v4.3c0,1.1,0.2,2,0.7,2.5c0.4,0.6,1.1,0.8,1.9,0.8
			c0.9,0,1.5-0.3,2-0.8c0.4-0.6,0.7-1.4,0.7-2.5V313.2z"/>
		<path d="M546.4,320.9c-0.4,0.6-1.1,1.1-1.9,1.6c-0.8,0.4-1.9,0.7-3.2,0.7c-1.6,0-3-0.5-4-1.4s-1.5-2.3-1.5-4.1V313
			c0-1.8,0.5-3.1,1.5-4.1c1-1,2.2-1.4,3.8-1.4c1.7,0,2.9,0.4,3.8,1.2c0.8,0.8,1.3,1.9,1.2,3.4l0,0.1h-2.8c0-0.8-0.2-1.4-0.5-1.7
			c-0.3-0.4-0.9-0.5-1.6-0.5c-0.8,0-1.4,0.3-1.8,0.8c-0.4,0.5-0.6,1.3-0.6,2.4v4.7c0,1.1,0.2,1.9,0.6,2.4c0.4,0.5,1.1,0.8,1.9,0.8
			c0.6,0,1-0.1,1.4-0.2s0.6-0.3,0.8-0.5V317h-2.3v-2h5.3V320.9z"/>
		<path d="M555.8,316.8v6.1h-3v-15.2h4.6c1.5,0,2.7,0.4,3.6,1.2c0.9,0.8,1.3,1.9,1.3,3.3c0,0.8-0.2,1.5-0.6,2.1
			c-0.4,0.6-0.9,1-1.6,1.4c0.8,0.3,1.4,0.7,1.7,1.3c0.3,0.6,0.5,1.4,0.5,2.3v1.1c0,0.4,0,0.9,0.1,1.3c0.1,0.5,0.3,0.8,0.5,1v0.2H560
			c-0.2-0.2-0.4-0.6-0.5-1.1c-0.1-0.5-0.1-1-0.1-1.5v-1.1c0-0.8-0.2-1.4-0.5-1.8c-0.3-0.4-0.8-0.6-1.4-0.6H555.8z M555.8,314.5h1.6
			c0.6,0,1.1-0.2,1.5-0.6c0.3-0.4,0.5-0.9,0.5-1.6c0-0.7-0.2-1.3-0.5-1.7c-0.3-0.4-0.8-0.6-1.4-0.6h-1.6V314.5z"/>
		<path d="M576.5,316.2h-4.7v4.4h5.6v2.3h-8.5v-15.3h8.5v2.3h-5.6v3.9h4.7V316.2z"/>
		<path d="M590.4,319c0-0.6-0.2-1.1-0.5-1.4c-0.3-0.4-0.9-0.7-1.7-1c-1.6-0.6-2.7-1.2-3.5-1.9c-0.8-0.7-1.2-1.7-1.2-2.9
			c0-1.3,0.5-2.3,1.4-3.1c0.9-0.8,2-1.2,3.4-1.2c1.5,0,2.7,0.4,3.6,1.3c0.9,0.8,1.3,2,1.3,3.4l0,0.1h-2.9c0-0.8-0.2-1.4-0.5-1.8
			c-0.4-0.4-0.9-0.6-1.5-0.6c-0.6,0-1,0.2-1.3,0.6c-0.3,0.4-0.5,0.8-0.5,1.4c0,0.5,0.2,0.9,0.5,1.3c0.4,0.3,1,0.7,1.8,1.1
			c1.5,0.5,2.6,1.1,3.3,1.9c0.8,0.7,1.1,1.8,1.1,3c0,1.3-0.4,2.3-1.3,3.1c-0.9,0.7-2.1,1.1-3.5,1.1c-1.4,0-2.7-0.4-3.7-1.2
			c-1-0.8-1.5-2-1.5-3.7l0-0.1h2.9c0,1,0.2,1.6,0.6,2.1c0.4,0.4,1,0.6,1.7,0.6c0.6,0,1.1-0.2,1.4-0.5
			C590.2,320,590.4,319.6,590.4,319z"/>
		<path d="M606.2,319c0-0.6-0.2-1.1-0.5-1.4c-0.3-0.4-0.9-0.7-1.7-1c-1.6-0.6-2.7-1.2-3.5-1.9c-0.8-0.7-1.2-1.7-1.2-2.9
			c0-1.3,0.5-2.3,1.4-3.1c0.9-0.8,2-1.2,3.4-1.2c1.5,0,2.7,0.4,3.6,1.3c0.9,0.8,1.3,2,1.3,3.4l0,0.1h-2.9c0-0.8-0.2-1.4-0.5-1.8
			c-0.4-0.4-0.9-0.6-1.5-0.6c-0.6,0-1,0.2-1.3,0.6c-0.3,0.4-0.5,0.8-0.5,1.4c0,0.5,0.2,0.9,0.5,1.3c0.4,0.3,1,0.7,1.8,1.1
			c1.5,0.5,2.6,1.1,3.3,1.9c0.8,0.7,1.1,1.8,1.1,3c0,1.3-0.4,2.3-1.3,3.1c-0.9,0.7-2.1,1.1-3.5,1.1c-1.4,0-2.7-0.4-3.7-1.2
			c-1-0.8-1.5-2-1.5-3.7l0-0.1h2.9c0,1,0.2,1.6,0.6,2.1c0.4,0.4,1,0.6,1.7,0.6c0.6,0,1.1-0.2,1.4-0.5
			C606.1,320,606.2,319.6,606.2,319z"/>
		<path d="M618.5,323h-2.9v-15.3h2.9V323z"/>
		<path d="M630,319.1l0.1,0.6h0.1l0.1-0.6l2.6-11.4h3.1l-4.4,15.3h-3.1l-4.3-15.3h3.1L630,319.1z"/>
		<path d="M649.2,316.2h-4.7v4.4h5.6v2.3h-8.5v-15.3h8.5v2.3h-5.6v3.9h4.7V316.2z"/>
		<path d="M519.2,343.1L519.2,343.1l1.6-9.7h3l-3,15.3h-2.7l-2.2-9.4h-0.1l-2.2,9.4h-2.7l-3-15.3h3l1.6,9.7l0.1,0l2.2-9.7h2.3
			L519.2,343.1z"/>
		<path d="M537.1,342h-4.7v4.4h5.6v2.3h-8.5v-15.3h8.5v2.3h-5.6v3.9h4.7V342z"/>
		<path d="M544.2,348.7v-15.3h4.4c1.6,0,2.8,0.3,3.7,1c0.9,0.7,1.3,1.7,1.3,3.1c0,0.7-0.2,1.4-0.5,1.9c-0.3,0.6-0.8,1-1.4,1.3
			c0.9,0.2,1.5,0.6,1.9,1.2c0.4,0.6,0.6,1.4,0.6,2.3c0,1.5-0.4,2.6-1.3,3.3s-2.1,1.1-3.6,1.1H544.2z M547.1,339.9h1.6
			c0.6,0,1.1-0.2,1.5-0.5c0.3-0.3,0.5-0.8,0.5-1.5c0-0.7-0.2-1.3-0.5-1.6c-0.3-0.3-0.9-0.5-1.6-0.5h-1.4V339.9z M547.1,341.9v4.5
			h2.2c0.6,0,1.1-0.2,1.5-0.5s0.5-0.9,0.5-1.6c0-0.7-0.2-1.3-0.5-1.7c-0.3-0.4-0.8-0.6-1.4-0.6h-0.1H547.1z"/>
		<path d="M576.2,345.4h-3.8l-0.9,3.3h-3.1l4.3-15.3h3.1l4.3,15.3h-3.1L576.2,345.4z M573,343.1h2.6l-1.3-4.8h-0.1L573,343.1z"/>
		<path d="M588.7,343.2v5.5h-3v-15.3h5.1c1.5,0,2.7,0.4,3.6,1.3c0.9,0.9,1.3,2.1,1.3,3.5c0,1.5-0.4,2.6-1.3,3.5
			c-0.9,0.9-2.1,1.3-3.6,1.3H588.7z M588.7,340.9h2.1c0.7,0,1.2-0.2,1.5-0.7c0.3-0.5,0.5-1.1,0.5-1.8c0-0.7-0.2-1.4-0.5-1.8
			c-0.3-0.5-0.9-0.7-1.5-0.7h-2.1V340.9z"/>
		<path d="M604.9,343.2v5.5h-3v-15.3h5.1c1.5,0,2.7,0.4,3.6,1.3c0.9,0.9,1.3,2.1,1.3,3.5c0,1.5-0.4,2.6-1.3,3.5
			c-0.9,0.9-2.1,1.3-3.6,1.3H604.9z M604.9,340.9h2.1c0.7,0,1.2-0.2,1.5-0.7c0.3-0.5,0.5-1.1,0.5-1.8c0-0.7-0.2-1.4-0.5-1.8
			c-0.3-0.5-0.9-0.7-1.5-0.7h-2.1V340.9z"/>
		<path d="M625,344.7c0-0.6-0.2-1.1-0.5-1.4c-0.3-0.4-0.9-0.7-1.7-1c-1.6-0.6-2.7-1.2-3.5-1.9c-0.8-0.7-1.2-1.7-1.2-2.9
			c0-1.3,0.5-2.3,1.4-3.1c0.9-0.8,2-1.2,3.4-1.2c1.5,0,2.7,0.4,3.6,1.3c0.9,0.8,1.3,2,1.3,3.4l0,0.1h-2.9c0-0.8-0.2-1.4-0.5-1.8
			c-0.4-0.4-0.9-0.6-1.5-0.6c-0.6,0-1,0.2-1.3,0.6c-0.3,0.4-0.5,0.8-0.5,1.4c0,0.5,0.2,0.9,0.5,1.3c0.4,0.3,1,0.7,1.8,1.1
			c1.5,0.5,2.6,1.1,3.3,1.9s1.1,1.8,1.1,3c0,1.3-0.4,2.3-1.3,3.1c-0.9,0.7-2.1,1.1-3.5,1.1c-1.4,0-2.7-0.4-3.7-1.2
			c-1-0.8-1.5-2-1.5-3.7l0-0.1h2.9c0,1,0.2,1.6,0.6,2.1c0.4,0.4,1,0.6,1.7,0.6c0.6,0,1.1-0.2,1.4-0.5
			C624.8,345.8,625,345.3,625,344.7z"/>
	</g>
</g>
<g>
	<ellipse transform="matrix(0.9184 -0.3957 0.3957 0.9184 -6.69 189.8156)" class="st0" cx="456.8" cy="111.1" rx="54" ry="54"/>
	<g>
		<path d="M426.9,112.4L426.9,112.4l-2.1-13.2l4.1-1.8l6.9,16.1l-3.1,1.3l-4.4-10.1l-0.1,0l1.5,11.4l-2.1,0.9l-7.2-8.8l-0.1,0
			l4.3,10l-3.1,1.3l-6.9-16.1l4-1.7L426.9,112.4z"/>
		<path d="M448.5,103.9l-4,1.7l0.6,3.9l-3.2,1.4l-2.4-18l3.2-1.4l11.5,14.1L451,107L448.5,103.9z M444.1,102.9l2.7-1.2l-3.5-4.5
			l-0.1,0L444.1,102.9z"/>
		<path d="M460.4,95.3l2.8,6.4l-3.1,1.3l-6.9-16l4.8-2.1c1.6-0.7,3-0.8,4.3-0.4c1.3,0.4,2.2,1.4,2.9,2.9c0.4,0.8,0.5,1.6,0.4,2.4
			c-0.1,0.8-0.5,1.5-1,2.2c1-0.1,1.8,0.1,2.4,0.6c0.6,0.5,1.2,1.2,1.6,2.2l0.5,1.2c0.2,0.4,0.4,0.9,0.8,1.3c0.3,0.4,0.7,0.7,1,0.8
			l0.1,0.2l-3.2,1.4c-0.4-0.1-0.7-0.4-1-0.9c-0.3-0.5-0.6-1-0.8-1.5l-0.5-1.1c-0.4-0.8-0.8-1.4-1.3-1.7c-0.5-0.3-1.1-0.3-1.7,0
			L460.4,95.3z M459.3,92.9l1.7-0.7c0.7-0.3,1.1-0.7,1.3-1.3c0.2-0.6,0.1-1.2-0.2-1.9c-0.3-0.8-0.8-1.3-1.3-1.6s-1.1-0.3-1.8,0
			l-1.7,0.7L459.3,92.9z"/>
		<path d="M478.1,87.3l-0.8,0.4l2.9,6.7l-3.1,1.3l-6.9-16.1l3.1-1.3l2.8,6.6l0.6-0.3l0.6-8l3.9-1.7l-1.5,9.3l8.7,6.6l-4,1.7
			L478.1,87.3z"/>
		<path d="M431.7,147.4l-6.9-16.1l5-2.1c1.7-0.7,3.3-0.7,5,0.1c1.6,0.8,2.9,2.2,3.7,4.1l1.1,2.7c0.8,2,1,3.8,0.4,5.5
			c-0.6,1.7-1.7,2.9-3.4,3.7L431.7,147.4z M429,132.4l4.8,11.2l1.8-0.8c0.8-0.3,1.3-1,1.4-2c0.2-1,0-2.1-0.6-3.4l-1.2-2.7
			c-0.5-1.2-1.2-2.2-2.1-2.7c-0.8-0.6-1.7-0.7-2.5-0.4L429,132.4z"/>
		<path d="M458.1,129.2c0.8,1.9,0.9,3.6,0.3,5.1c-0.6,1.5-1.8,2.7-3.6,3.4c-1.8,0.8-3.4,0.8-4.9,0.2c-1.5-0.6-2.7-1.8-3.5-3.7
			l-1.9-4.5c-0.8-1.9-0.9-3.6-0.3-5.1c0.6-1.5,1.8-2.7,3.5-3.4c1.8-0.8,3.4-0.8,5-0.2c1.5,0.6,2.7,1.9,3.5,3.7L458.1,129.2z
			 M453,126c-0.5-1.2-1.1-1.9-1.9-2.3c-0.7-0.4-1.5-0.4-2.4,0c-0.9,0.4-1.5,1-1.7,1.8c-0.2,0.8,0,1.8,0.5,2.9l1.9,4.5
			c0.5,1.2,1.1,2,1.8,2.4c0.7,0.4,1.5,0.4,2.4,0c0.9-0.4,1.5-1,1.7-1.8c0.2-0.8,0.1-1.8-0.5-3L453,126z"/>
		<path d="M475.7,121.5L475.7,121.5l-2.7-10.9l3.2-1.4l3.8,17.4l-2.9,1.2l-6.6-8.9l-0.1,0l1.9,11l-2.9,1.2l-10.1-14.7l3.2-1.4l6,9.5
			l0.1,0l-2.1-11.2l2.4-1.1L475.7,121.5z"/>
		<path d="M500.4,117.8l-3.1,1.3l-9.5-8.1l-0.1,0l4.4,10.2l-3.1,1.3l-6.9-16.1l3.1-1.3l9.5,8.1l0.1,0l-4.4-10.2l3.1-1.3L500.4,117.8
			z"/>
	</g>
</g>
<g>
	
		<ellipse transform="matrix(0.9575 -0.2885 0.2885 0.9575 -91.1828 98.277)" class="st1" cx="287.8" cy="358.5" rx="65.2" ry="65.2"/>
	<g>
		<path d="M264.6,348.2L264.6,348.2l-1.9-14.8l4.4-1.3l2.3,23.5l-4,1.2L258,344l-0.1,0l0.9,14.7l-4,1.2l-11-20.8l4.4-1.3l6.5,13.4
			l0.1,0l-1.1-15l3.4-1L264.6,348.2z"/>
		<path d="M290.1,338.6l-6.8,2l1.9,6.4l8.1-2.4l1,3.3l-12.4,3.7l-6.7-22.2l12.4-3.7l1,3.4l-8.1,2.4l1.7,5.7l6.8-2L290.1,338.6z"/>
		<path d="M303.4,345.3l-6.7-22.2l6.3-1.9c2.3-0.7,4.3-0.7,5.9-0.1c1.6,0.6,2.7,1.9,3.3,3.9c0.3,1,0.4,2,0.1,3
			c-0.2,1-0.7,1.8-1.5,2.4c1.3-0.1,2.4,0.2,3.3,0.9c0.9,0.8,1.5,1.8,1.9,3c0.6,2.1,0.5,3.9-0.4,5.4c-0.9,1.5-2.5,2.5-4.8,3.2
			L303.4,345.3z M303.8,331.2l2.3-0.7c0.9-0.3,1.5-0.8,1.9-1.4c0.3-0.6,0.4-1.4,0.1-2.4c-0.3-1.1-0.8-1.8-1.5-2.1
			c-0.7-0.3-1.5-0.4-2.5-0.1l-2.1,0.6L303.8,331.2z M304.7,334.2l1.9,6.5l3.1-0.9c0.9-0.3,1.6-0.8,1.9-1.4c0.3-0.7,0.3-1.5,0-2.5
			c-0.3-1.1-0.8-1.8-1.4-2.3c-0.6-0.4-1.4-0.5-2.3-0.3l-0.2,0L304.7,334.2z"/>
		<path d="M256.6,391.5l2.4,8l-4.3,1.3l-6.7-22.2l7.4-2.2c2.2-0.7,4.2-0.5,5.9,0.4c1.7,0.9,2.9,2.4,3.5,4.5c0.6,2.1,0.5,4-0.4,5.7
			c-0.9,1.7-2.5,2.9-4.7,3.5L256.6,391.5z M255.6,388.1l3.1-0.9c1-0.3,1.6-0.9,1.9-1.7c0.3-0.8,0.3-1.8,0-2.9
			c-0.3-1.1-0.8-1.9-1.6-2.5c-0.7-0.6-1.6-0.7-2.5-0.4l-3.1,0.9L255.6,388.1z"/>
		<path d="M284.6,386.5l-5.5,1.7l0.2,5.2l-4.5,1.3l-0.4-24.1l4.4-1.3l13,20.3l-4.5,1.4L284.6,386.5z M278.9,384.6l3.8-1.1l-4-6.5
			l-0.1,0L278.9,384.6z"/>
		<path d="M312.1,376L312.1,376c0.8,2.4,0.7,4.4-0.2,6c-0.9,1.6-2.5,2.7-4.8,3.4c-2.4,0.7-4.5,0.6-6.3-0.4c-1.8-1-3.1-2.8-3.9-5.4
			l-2-6.6c-0.8-2.6-0.7-4.8,0.2-6.6c0.9-1.8,2.5-3.1,4.8-3.8c2.4-0.7,4.5-0.7,6.1,0.1c1.7,0.8,2.8,2.4,3.5,4.8l0,0.1l-4.2,1.3
			c-0.4-1.4-1-2.3-1.7-2.8c-0.7-0.4-1.6-0.4-2.8-0.1c-1.1,0.3-1.8,1-2.1,1.9c-0.3,0.9-0.2,2.2,0.3,3.8l2,6.6
			c0.5,1.6,1.1,2.7,1.9,3.3c0.8,0.6,1.8,0.7,3,0.4c1.1-0.3,1.7-0.8,2-1.5c0.3-0.7,0.2-1.8-0.2-3.2L312.1,376z"/>
		<path d="M325.8,369.2l-1.2,0.4l2.8,9.3l-4.3,1.3l-6.7-22.2l4.3-1.3l2.7,9.1l0.9-0.3l2-10.5l5.3-1.6l-3.3,12.1l10.5,10l-5.5,1.7
			L325.8,369.2z"/>
	</g>
</g>
<g>
	<g>
		<circle class="st0" cx="439.8" cy="476.9" r="95.6"/>
		<g>
			<path d="M364.6,479.2v6.1h-3.2v-16.7h5.6c1.7,0,3,0.5,4,1.5c1,1,1.5,2.3,1.5,3.9c0,1.6-0.5,2.9-1.5,3.9c-1,1-2.3,1.5-4,1.5H364.6
				z M364.6,476.7h2.4c0.7,0,1.3-0.3,1.7-0.8c0.4-0.5,0.6-1.2,0.6-2c0-0.8-0.2-1.5-0.6-2c-0.4-0.5-0.9-0.8-1.7-0.8h-2.4V476.7z"/>
			<path d="M391.1,485.3h-3.2v-7h-5.4v7h-3.2v-16.7h3.2v7.2h5.4v-7.2h3.2V485.3z"/>
			<path d="M410.2,479.2c0,2-0.6,3.5-1.7,4.6c-1.1,1.1-2.6,1.7-4.4,1.7c-1.8,0-3.3-0.6-4.4-1.7c-1.1-1.1-1.7-2.6-1.7-4.6v-4.7
				c0-2,0.5-3.5,1.6-4.6s2.6-1.7,4.4-1.7c1.8,0,3.3,0.6,4.4,1.7c1.1,1.1,1.7,2.7,1.7,4.6V479.2z M407,474.5c0-1.2-0.2-2.1-0.7-2.8
				c-0.5-0.6-1.2-0.9-2.1-0.9c-0.9,0-1.7,0.3-2.1,0.9c-0.5,0.6-0.7,1.5-0.7,2.8v4.7c0,1.2,0.2,2.2,0.7,2.8c0.5,0.6,1.2,0.9,2.1,0.9
				s1.7-0.3,2.1-0.9c0.5-0.6,0.7-1.6,0.7-2.8V474.5z"/>
			<path d="M427,471.1H423v14.2h-3.3v-14.2H416v-2.5h11V471.1z"/>
			<path d="M444.8,479.2c0,2-0.6,3.5-1.7,4.6c-1.1,1.1-2.6,1.7-4.4,1.7c-1.8,0-3.3-0.6-4.4-1.7c-1.1-1.1-1.7-2.6-1.7-4.6v-4.7
				c0-2,0.5-3.5,1.6-4.6s2.6-1.7,4.4-1.7s3.3,0.6,4.4,1.7c1.1,1.1,1.7,2.7,1.7,4.6V479.2z M441.6,474.5c0-1.2-0.2-2.1-0.7-2.8
				c-0.5-0.6-1.2-0.9-2.1-0.9c-0.9,0-1.7,0.3-2.1,0.9c-0.5,0.6-0.7,1.5-0.7,2.8v4.7c0,1.2,0.2,2.2,0.7,2.8c0.5,0.6,1.2,0.9,2.1,0.9
				s1.7-0.3,2.1-0.9c0.5-0.6,0.7-1.6,0.7-2.8V474.5z"/>
			<path d="M459.2,480.9c0-0.7-0.2-1.2-0.5-1.6c-0.3-0.4-1-0.8-1.8-1.1c-1.7-0.6-3-1.3-3.9-2.1c-0.9-0.8-1.3-1.8-1.3-3.2
				c0-1.4,0.5-2.5,1.5-3.3c1-0.9,2.2-1.3,3.8-1.3c1.6,0,2.9,0.5,3.9,1.4c1,0.9,1.5,2.2,1.4,3.7l0,0.1h-3.1c0-0.9-0.2-1.5-0.6-2
				c-0.4-0.4-0.9-0.7-1.7-0.7c-0.6,0-1.1,0.2-1.4,0.6c-0.3,0.4-0.5,0.9-0.5,1.5c0,0.6,0.2,1,0.6,1.4s1.1,0.8,2,1.2
				c1.6,0.5,2.8,1.2,3.7,2c0.8,0.8,1.2,1.9,1.2,3.3c0,1.4-0.5,2.6-1.5,3.4c-1,0.8-2.3,1.2-3.9,1.2c-1.6,0-2.9-0.4-4.1-1.3
				c-1.1-0.9-1.7-2.2-1.6-4l0-0.1h3.2c0,1,0.2,1.8,0.6,2.3c0.4,0.5,1.1,0.7,1.9,0.7c0.7,0,1.2-0.2,1.6-0.6
				C459,482.1,459.2,481.5,459.2,480.9z"/>
			<path d="M481.1,485.3h-3.2v-7h-5.4v7h-3.2v-16.7h3.2v7.2h5.4v-7.2h3.2V485.3z"/>
			<path d="M500.2,479.2c0,2-0.6,3.5-1.7,4.6c-1.1,1.1-2.6,1.7-4.4,1.7c-1.8,0-3.3-0.6-4.4-1.7c-1.1-1.1-1.7-2.6-1.7-4.6v-4.7
				c0-2,0.5-3.5,1.6-4.6s2.6-1.7,4.4-1.7c1.8,0,3.3,0.6,4.4,1.7c1.1,1.1,1.7,2.7,1.7,4.6V479.2z M497,474.5c0-1.2-0.2-2.1-0.7-2.8
				c-0.5-0.6-1.2-0.9-2.1-0.9c-0.9,0-1.7,0.3-2.1,0.9c-0.5,0.6-0.7,1.5-0.7,2.8v4.7c0,1.2,0.2,2.2,0.7,2.8c0.5,0.6,1.2,0.9,2.1,0.9
				s1.7-0.3,2.1-0.9c0.5-0.6,0.7-1.6,0.7-2.8V474.5z"/>
			<path d="M510.4,479.2v6.1h-3.2v-16.7h5.6c1.7,0,3,0.5,4,1.5c1,1,1.5,2.3,1.5,3.9c0,1.6-0.5,2.9-1.5,3.9c-1,1-2.3,1.5-4,1.5H510.4
				z M510.4,476.7h2.4c0.7,0,1.3-0.3,1.7-0.8c0.4-0.5,0.6-1.2,0.6-2c0-0.8-0.2-1.5-0.6-2s-0.9-0.8-1.7-0.8h-2.4V476.7z"/>
		</g>
	</g>
	<g>
		<circle class="st1" cx="492.8" cy="613.5" r="64.1"/>
		<g>
			<path d="M442.6,618.5h-1.9v-9.9h1.9V618.5z"/>
			<path d="M449,616.9h3.7v1.5h-5.6v-9.9h1.9V616.9z"/>
			<path d="M458.6,616.9h3.7v1.5h-5.6v-9.9h1.9V616.9z"/>
			<path d="M472.8,608.5v6.5c0,1.1-0.3,2-1,2.6c-0.6,0.6-1.5,0.9-2.5,0.9c-1,0-1.9-0.3-2.5-1c-0.6-0.6-1-1.5-1-2.6v-6.5h1.9v6.5
				c0,0.7,0.1,1.2,0.4,1.6c0.3,0.4,0.7,0.5,1.2,0.5c0.5,0,0.9-0.2,1.2-0.5c0.3-0.4,0.4-0.9,0.4-1.6v-6.5H472.8z"/>
			<path d="M481.5,615.9c0-0.4-0.1-0.7-0.3-0.9c-0.2-0.2-0.6-0.5-1.1-0.7c-1-0.4-1.8-0.8-2.3-1.2c-0.5-0.5-0.8-1.1-0.8-1.9
				c0-0.8,0.3-1.5,0.9-2c0.6-0.5,1.3-0.8,2.2-0.8c1,0,1.7,0.3,2.3,0.8c0.6,0.5,0.9,1.3,0.9,2.2l0,0h-1.9c0-0.5-0.1-0.9-0.3-1.2
				s-0.6-0.4-1-0.4c-0.4,0-0.7,0.1-0.9,0.4c-0.2,0.2-0.3,0.5-0.3,0.9c0,0.3,0.1,0.6,0.3,0.8c0.2,0.2,0.6,0.5,1.2,0.7
				c1,0.3,1.7,0.7,2.2,1.2c0.5,0.5,0.7,1.1,0.7,2c0,0.9-0.3,1.5-0.9,2c-0.6,0.5-1.3,0.7-2.3,0.7c-0.9,0-1.7-0.3-2.4-0.8
				c-0.7-0.5-1-1.3-1-2.4l0,0h1.9c0,0.6,0.1,1.1,0.4,1.3c0.3,0.3,0.6,0.4,1.1,0.4c0.4,0,0.7-0.1,0.9-0.3
				C481.4,616.5,481.5,616.2,481.5,615.9z"/>
			<path d="M493.4,610h-2.3v8.4h-1.9V610h-2.3v-1.5h6.5V610z"/>
			<path d="M499.1,614.5v4h-1.9v-9.9h3c1,0,1.8,0.3,2.3,0.8c0.6,0.5,0.9,1.2,0.9,2.2c0,0.5-0.1,1-0.4,1.3c-0.2,0.4-0.6,0.7-1,0.9
				c0.5,0.2,0.9,0.5,1.1,0.9c0.2,0.4,0.3,0.9,0.3,1.5v0.7c0,0.3,0,0.6,0.1,0.9c0.1,0.3,0.2,0.5,0.3,0.7v0.1h-2
				c-0.2-0.1-0.3-0.4-0.3-0.7c0-0.3-0.1-0.7-0.1-1v-0.7c0-0.5-0.1-0.9-0.3-1.2c-0.2-0.3-0.5-0.4-0.9-0.4H499.1z M499.1,613h1
				c0.4,0,0.7-0.1,0.9-0.4c0.2-0.2,0.3-0.6,0.3-1.1c0-0.5-0.1-0.8-0.3-1.1c-0.2-0.3-0.5-0.4-0.9-0.4h-1.1V613z"/>
			<path d="M512.1,616.3h-2.5l-0.6,2.2h-2l2.8-9.9h2l2.8,9.9h-2L512.1,616.3z M510,614.8h1.7l-0.8-3.2h0L510,614.8z"/>
			<path d="M523.4,610H521v8.4h-1.9V610h-2.3v-1.5h6.5V610z"/>
			<path d="M534,614.9c0,1.2-0.3,2.1-1,2.7c-0.7,0.7-1.5,1-2.6,1c-1.1,0-2-0.3-2.6-1c-0.7-0.7-1-1.6-1-2.7v-2.8c0-1.2,0.3-2.1,1-2.7
				c0.7-0.7,1.5-1,2.6-1c1.1,0,2,0.3,2.6,1c0.7,0.7,1,1.6,1,2.7V614.9z M532.1,612.1c0-0.7-0.1-1.3-0.4-1.6
				c-0.3-0.4-0.7-0.6-1.3-0.6c-0.6,0-1,0.2-1.3,0.5c-0.3,0.4-0.4,0.9-0.4,1.6v2.8c0,0.7,0.1,1.3,0.4,1.7c0.3,0.4,0.7,0.6,1.3,0.6
				c0.6,0,1-0.2,1.3-0.6c0.3-0.4,0.4-0.9,0.4-1.7V612.1z"/>
			<path d="M540.1,614.5v4h-1.9v-9.9h3c1,0,1.8,0.3,2.3,0.8c0.6,0.5,0.9,1.2,0.9,2.2c0,0.5-0.1,1-0.4,1.3c-0.2,0.4-0.6,0.7-1,0.9
				c0.5,0.2,0.9,0.5,1.1,0.9c0.2,0.4,0.3,0.9,0.3,1.5v0.7c0,0.3,0,0.6,0.1,0.9s0.2,0.5,0.3,0.7v0.1h-2c-0.2-0.1-0.3-0.4-0.3-0.7
				c0-0.3-0.1-0.7-0.1-1v-0.7c0-0.5-0.1-0.9-0.3-1.2c-0.2-0.3-0.5-0.4-0.9-0.4H540.1z M540.1,613h1c0.4,0,0.7-0.1,0.9-0.4
				c0.2-0.2,0.3-0.6,0.3-1.1c0-0.5-0.1-0.8-0.3-1.1c-0.2-0.3-0.5-0.4-0.9-0.4h-1.1V613z"/>
		</g>
	</g>
	<g>
		
			<ellipse transform="matrix(0.4383 -0.8989 0.8989 0.4383 -497.3202 464.5806)" class="st1" cx="123" cy="630.2" rx="81.9" ry="81.9"/>
		<g>
			<path d="M93.9,603.1l-4.6-2.2l-3,3.5l-3.7-1.8l14.1-15.8l3.7,1.8l-3.7,20.8l-3.7-1.8L93.9,603.1z M91.5,598.5l3.1,1.5l1.3-6.5
				l-0.1,0L91.5,598.5z"/>
			<path d="M116.5,609.5l-5.8-2.8l-3.7,7.6l-3.5-1.7l8.9-18.3l10.5,5.1l-1.4,2.8l-6.9-3.4L112,604l5.8,2.8L116.5,609.5z"/>
			<path d="M139.6,611.1l-4.3-2.1l-7.6,15.5l-3.6-1.7l7.6-15.5l-4.2-2l1.4-2.8l12,5.9L139.6,611.1z"/>
			<path d="M152,626.3l-5.6-2.7l-2.6,5.3l6.7,3.3l-1.3,2.8l-10.2-5l8.9-18.3l10.2,5l-1.4,2.8l-6.7-3.3l-2.3,4.7l5.6,2.7L152,626.3z"
				/>
			<path d="M163.6,632.9l-3.6,7.3l-3.5-1.7l8.9-18.3l5.5,2.7c1.8,0.9,3,2.1,3.6,3.5c0.6,1.5,0.5,3-0.4,4.7c-0.5,0.9-1.1,1.7-1.9,2.1
				c-0.8,0.5-1.7,0.7-2.7,0.7c0.8,0.8,1.2,1.6,1.3,2.6c0.1,0.9-0.2,2-0.7,3.1l-0.6,1.3c-0.2,0.5-0.5,1.1-0.6,1.7
				c-0.2,0.6-0.1,1.1,0,1.5l-0.1,0.3l-3.7-1.8c-0.2-0.4-0.1-0.9,0.1-1.6c0.2-0.6,0.5-1.3,0.8-1.9l0.6-1.3c0.5-0.9,0.6-1.7,0.5-2.4
				c-0.1-0.7-0.6-1.2-1.3-1.6L163.6,632.9z M165,630.2l1.9,0.9c0.8,0.4,1.5,0.4,2.1,0.2c0.6-0.3,1.1-0.8,1.5-1.6
				c0.4-0.9,0.6-1.6,0.4-2.3c-0.1-0.7-0.6-1.2-1.4-1.6l-1.9-0.9L165,630.2z"/>
			<path d="M64.8,622l-5.6-2.7l-2.6,5.3l6.7,3.3l-1.3,2.8l-10.2-5l8.9-18.3l10.2,5l-1.4,2.8l-6.7-3.3l-2.3,4.7l5.6,2.7L64.8,622z"/>
			<path d="M82.4,631.2l-5.8-2.8l-3.7,7.6l-3.5-1.7l8.9-18.3l10.5,5.1l-1.4,2.8l-6.9-3.4l-2.5,5.1l5.8,2.8L82.4,631.2z"/>
			<path d="M100,639.8l-5.8-2.8l-3.7,7.6l-3.5-1.7l8.9-18.3l10.5,5.1l-1.4,2.8l-6.9-3.4l-2.5,5.1l5.8,2.8L100,639.8z"/>
			<path d="M117.7,647.8l-5.6-2.7l-2.6,5.3l6.7,3.3l-1.3,2.8l-10.2-5l8.9-18.3l10.2,5l-1.4,2.8l-6.7-3.3l-2.3,4.7l5.6,2.7
				L117.7,647.8z"/>
			<path d="M137,660.2L137,660.2c-0.9,2.1-2.1,3.3-3.7,3.8c-1.5,0.5-3.2,0.2-5.1-0.7c-2-1-3.2-2.3-3.8-4c-0.6-1.7-0.4-3.7,0.7-5.8
				l2.6-5.4c1-2.1,2.4-3.5,4.1-4.1c1.7-0.6,3.5-0.5,5.4,0.4c2,1,3.3,2.2,3.9,3.7c0.6,1.5,0.4,3.2-0.6,5.2l-0.1,0.1l-3.4-1.7
				c0.6-1.2,0.8-2.1,0.6-2.8c-0.2-0.7-0.8-1.2-1.7-1.7c-0.9-0.4-1.7-0.4-2.5,0c-0.8,0.4-1.5,1.3-2.1,2.6l-2.7,5.5
				c-0.6,1.3-0.9,2.4-0.7,3.3c0.2,0.9,0.7,1.5,1.7,2c0.9,0.4,1.6,0.5,2.2,0.2c0.6-0.3,1.2-1,1.8-2.2L137,660.2z"/>
			<path d="M159.8,659.2l-4.3-2.1l-7.6,15.5l-3.6-1.7l7.6-15.5l-4.2-2l1.4-2.8l12,5.9L159.8,659.2z"/>
			<path d="M169.3,677.1c0.4-0.7,0.4-1.4,0.3-2c-0.2-0.6-0.6-1.3-1.4-2.2c-1.6-1.6-2.6-3-3.1-4.3c-0.5-1.3-0.4-2.7,0.3-4.2
				c0.7-1.5,1.9-2.5,3.4-2.9c1.5-0.4,3.1-0.2,4.8,0.6c1.8,0.9,3,2.1,3.5,3.6s0.5,3.1-0.4,4.8l-0.1,0.1l-3.4-1.7
				c0.5-0.9,0.6-1.8,0.4-2.5c-0.2-0.7-0.7-1.2-1.5-1.6c-0.7-0.3-1.3-0.4-1.9-0.1c-0.6,0.3-1.1,0.7-1.4,1.4c-0.3,0.6-0.3,1.2-0.1,1.8
				s0.7,1.4,1.6,2.4c1.5,1.4,2.5,2.8,2.9,4.2c0.5,1.3,0.3,2.8-0.4,4.3c-0.8,1.6-1.9,2.5-3.4,2.9c-1.5,0.4-3.1,0.1-4.9-0.7
				c-1.7-0.8-3-2.1-3.7-3.6c-0.8-1.6-0.6-3.3,0.4-5.3l0.1-0.1l3.5,1.7c-0.6,1.1-0.7,2.1-0.5,2.8s0.8,1.3,1.7,1.8
				c0.8,0.4,1.4,0.4,2,0.2C168.5,678.3,169,677.8,169.3,677.1z"/>
		</g>
	</g>
	<g>
		
			<ellipse transform="matrix(7.864492e-02 -0.9969 0.9969 7.864492e-02 -321.4341 853.5652)" class="st2" cx="301.1" cy="600.7" rx="105.1" ry="105.1"/>
		<g>
			<path d="M217.7,582.9l-0.8,9.7l-5.2-0.4l2.1-26.8l9,0.7c2.7,0.2,4.7,1.2,6.2,2.9c1.4,1.7,2.1,3.8,1.9,6.4c-0.2,2.6-1.1,4.6-2.8,6
				s-3.9,2.1-6.6,1.8L217.7,582.9z M218,578.9l3.8,0.3c1.2,0.1,2.1-0.3,2.8-1c0.7-0.8,1.1-1.8,1.2-3.1c0.1-1.3-0.1-2.4-0.7-3.3
				c-0.5-0.9-1.4-1.4-2.6-1.5l-3.8-0.3L218,578.9z"/>
			<path d="M246.3,584.1l-0.8,10.7l-5.2-0.4l2.1-26.7l8,0.6c2.7,0.2,4.7,1.1,6.1,2.6s2,3.5,1.8,6c-0.1,1.4-0.5,2.6-1.2,3.5
				c-0.7,1-1.7,1.7-3,2.2c1.4,0.6,2.3,1.4,2.8,2.6c0.5,1.1,0.7,2.5,0.6,4.1l-0.2,1.9c-0.1,0.7,0,1.5,0.1,2.4
				c0.1,0.8,0.4,1.5,0.8,1.9l0,0.4l-5.4-0.4c-0.4-0.4-0.6-1.1-0.7-2c0-0.9,0-1.8,0-2.7l0.1-1.9c0.1-1.4-0.1-2.4-0.6-3.2
				c-0.5-0.8-1.3-1.2-2.3-1.3L246.3,584.1z M246.6,580.1l2.8,0.2c1.1,0.1,2-0.2,2.6-0.8c0.6-0.6,1-1.5,1.1-2.8
				c0.1-1.2-0.1-2.3-0.6-3c-0.5-0.8-1.3-1.2-2.4-1.3l-2.8-0.2L246.6,580.1z"/>
			<path d="M282.9,585.9l-8.2-0.6l-0.6,7.8l9.8,0.8l-0.3,4l-15-1.2l2.1-26.8l14.9,1.2l-0.3,4.1l-9.8-0.8l-0.5,6.8l8.2,0.6
				L282.9,585.9z"/>
			<path d="M306.5,592.7l0.1,0l6.6-19.5l6.8,0.5l-2.1,26.8l-5.1-0.4l1.3-16.9l-0.1,0l-6.2,16.5l-3.5-0.3l-3.5-17.1l-0.1,0l-1.3,16.7
				l-5.2-0.4l2.1-26.8l6.7,0.5L306.5,592.7z"/>
			<path d="M334.9,601.9l-5.2-0.4l2.1-26.8l5.2,0.4L334.9,601.9z"/>
			<path d="M361.2,592.1l-8.2-0.6l-0.6,7.8l9.8,0.8l-0.3,4l-15-1.2l2.1-26.8l14.9,1.2l-0.3,4.1l-9.8-0.8l-0.5,6.8l8.2,0.6
				L361.2,592.1z"/>
			<path d="M378.7,594.6l-0.8,10.7l-5.2-0.4l2.1-26.7l8,0.6c2.7,0.2,4.7,1.1,6.1,2.6s2,3.5,1.8,6c-0.1,1.4-0.5,2.6-1.2,3.5
				c-0.7,1-1.7,1.7-3,2.2c1.4,0.6,2.3,1.4,2.8,2.6c0.5,1.1,0.7,2.5,0.6,4.1l-0.2,1.9c-0.1,0.7,0,1.5,0.1,2.4
				c0.1,0.8,0.4,1.5,0.8,1.9l0,0.4l-5.4-0.4c-0.4-0.4-0.6-1.1-0.7-2c0-0.9,0-1.8,0-2.7l0.1-1.9c0.1-1.4-0.1-2.4-0.6-3.2
				c-0.5-0.8-1.3-1.2-2.3-1.3L378.7,594.6z M379,590.5l2.8,0.2c1.1,0.1,2-0.2,2.6-0.8c0.6-0.6,1-1.5,1.1-2.8c0.1-1.2-0.1-2.3-0.6-3
				c-0.5-0.8-1.3-1.2-2.4-1.3l-2.8-0.2L379,590.5z"/>
			<path d="M265.3,632.2l-0.8,9.7l-5.2-0.4l2.1-26.8l9,0.7c2.7,0.2,4.7,1.2,6.2,2.9c1.4,1.7,2.1,3.8,1.9,6.4c-0.2,2.6-1.1,4.6-2.8,6
				s-3.9,2.1-6.6,1.8L265.3,632.2z M265.6,628.1l3.8,0.3c1.2,0.1,2.1-0.3,2.8-1c0.7-0.8,1.1-1.8,1.2-3.1c0.1-1.3-0.1-2.4-0.7-3.3
				c-0.5-0.9-1.4-1.4-2.6-1.5l-3.8-0.3L265.6,628.1z"/>
			<path d="M293.9,633.4l-0.8,10.7l-5.2-0.4l2.1-26.7l8,0.6c2.7,0.2,4.7,1.1,6.1,2.6s2,3.5,1.8,6c-0.1,1.4-0.5,2.6-1.2,3.5
				c-0.7,1-1.7,1.7-3,2.2c1.4,0.6,2.3,1.4,2.8,2.6c0.5,1.1,0.7,2.5,0.6,4.1l-0.2,1.9c-0.1,0.7,0,1.5,0.1,2.4s0.4,1.5,0.8,1.9l0,0.4
				l-5.4-0.4c-0.4-0.4-0.6-1.1-0.7-2c0-0.9,0-1.8,0-2.7l0.1-1.9c0.1-1.4-0.1-2.4-0.6-3.2c-0.5-0.8-1.3-1.2-2.3-1.3L293.9,633.4z
				 M294.2,629.3l2.8,0.2c1.1,0.1,2-0.2,2.6-0.8c0.6-0.6,1-1.5,1.1-2.8c0.1-1.2-0.1-2.3-0.6-3c-0.5-0.8-1.3-1.2-2.4-1.3l-2.8-0.2
				L294.2,629.3z"/>
			<path d="M335.9,637.8c-0.2,3.1-1.3,5.5-3.2,7.2c-1.9,1.6-4.4,2.3-7.3,2.1c-3-0.2-5.2-1.3-6.9-3.2c-1.6-1.9-2.3-4.4-2.1-7.6
				l0.6-7.5c0.2-3.1,1.3-5.5,3.2-7.2c1.9-1.6,4.3-2.3,7.3-2.1c3,0.2,5.3,1.3,6.9,3.2c1.6,1.9,2.3,4.5,2.1,7.6L335.9,637.8z
				 M331.3,629.9c0.2-1.9-0.1-3.5-0.8-4.5c-0.7-1.1-1.8-1.6-3.3-1.8c-1.5-0.1-2.7,0.3-3.5,1.2c-0.8,0.9-1.3,2.4-1.5,4.3l-0.6,7.5
				c-0.2,2,0.1,3.5,0.8,4.6c0.7,1.1,1.8,1.6,3.3,1.8c1.5,0.1,2.7-0.3,3.5-1.2s1.4-2.4,1.5-4.4L331.3,629.9z"/>
		</g>
	</g>
	<g>
		<circle class="st1" cx="208.7" cy="476.8" r="56.1"/>
		<g>
			<path d="M167.9,480.4h-3.2l-0.7,2.8h-2.6l3.6-12.7h2.6l3.6,12.7h-2.6L167.9,480.4z M165.2,478.5h2.2l-1.1-4h-0.1L165.2,478.5z"/>
			<path d="M184.6,470.4v8.3c0,1.4-0.4,2.6-1.2,3.4c-0.8,0.8-1.9,1.2-3.3,1.2c-1.3,0-2.4-0.4-3.2-1.2c-0.8-0.8-1.2-1.9-1.2-3.4v-8.3
				h2.5v8.3c0,0.9,0.2,1.5,0.5,2c0.4,0.5,0.9,0.7,1.5,0.7c0.6,0,1.1-0.2,1.5-0.7c0.4-0.5,0.5-1.1,0.5-2v-8.3H184.6z"/>
			<path d="M190,483.2v-12.7h3.9c1.3,0,2.4,0.5,3.3,1.5c0.9,1,1.3,2.3,1.3,3.8v2.1c0,1.6-0.4,2.8-1.3,3.8c-0.9,1-2,1.5-3.3,1.5H190z
				 M192.5,472.4v8.9h1.5c0.6,0,1.1-0.3,1.5-0.9c0.4-0.6,0.6-1.4,0.6-2.4v-2.1c0-1-0.2-1.8-0.6-2.4c-0.4-0.6-0.9-0.9-1.5-0.9H192.5z
				"/>
			<path d="M206.4,483.2H204v-12.7h2.5V483.2z"/>
			<path d="M219.5,472.4h-3v10.8h-2.5v-10.8h-2.9v-1.9h8.4V472.4z"/>
			<path d="M226.9,483.2h-2.5v-12.7h2.5V483.2z"/>
			<path d="M241.7,478.6c0,1.5-0.4,2.7-1.3,3.5c-0.8,0.8-2,1.3-3.4,1.3s-2.5-0.4-3.4-1.3c-0.8-0.8-1.3-2-1.3-3.5V475
				c0-1.5,0.4-2.7,1.3-3.5c0.8-0.8,2-1.3,3.4-1.3c1.4,0,2.5,0.4,3.4,1.3c0.8,0.8,1.3,2,1.3,3.5V478.6z M239.2,475
				c0-0.9-0.2-1.6-0.6-2.1c-0.4-0.5-0.9-0.7-1.6-0.7c-0.7,0-1.3,0.2-1.6,0.7c-0.4,0.5-0.5,1.2-0.5,2.1v3.6c0,0.9,0.2,1.7,0.5,2.1
				c0.4,0.5,0.9,0.7,1.6,0.7s1.3-0.2,1.6-0.7c0.4-0.5,0.6-1.2,0.6-2.1V475z"/>
			<path d="M256,483.2h-2.5l-4-8.1l-0.1,0v8.1H247v-12.7h2.5l4,8.1l0.1,0v-8.1h2.5V483.2z"/>
		</g>
	</g>
</g>
<g>
	<circle class="st0" cx="71.3" cy="439" r="67.1"/>
	<g>
		<path d="M58.7,427.6L58.7,427.6l1.7-10h3.1l-3.1,15.8h-2.8l-2.3-9.8h-0.1l-2.3,9.8H50l-3.1-15.8H50l1.6,10l0.1,0l2.3-10h2.4
			L58.7,427.6z"/>
		<path d="M77.3,426.4h-4.8v4.6h5.8v2.4h-8.9v-15.8h8.8v2.4h-5.8v4h4.8V426.4z"/>
		<path d="M84.6,433.4v-15.8h4.5c1.7,0,2.9,0.4,3.9,1.1c0.9,0.7,1.4,1.8,1.4,3.2c0,0.7-0.2,1.4-0.5,2c-0.3,0.6-0.8,1-1.5,1.3
			c0.9,0.2,1.5,0.6,2,1.3c0.4,0.7,0.6,1.4,0.6,2.3c0,1.5-0.4,2.7-1.3,3.4c-0.9,0.8-2.1,1.2-3.8,1.2H84.6z M87.7,424.3h1.6
			c0.7,0,1.2-0.2,1.5-0.6c0.3-0.4,0.5-0.9,0.5-1.5c0-0.8-0.2-1.3-0.5-1.7c-0.4-0.4-0.9-0.5-1.6-0.5h-1.5V424.3z M87.7,426.4v4.6h2.2
			c0.7,0,1.2-0.2,1.5-0.6c0.3-0.4,0.5-0.9,0.5-1.7c0-0.8-0.2-1.3-0.5-1.7c-0.3-0.4-0.8-0.6-1.5-0.7h-0.1H87.7z"/>
		<path d="M24.2,456c0-0.6-0.2-1.1-0.5-1.5c-0.3-0.4-0.9-0.7-1.7-1.1c-1.6-0.6-2.8-1.2-3.7-1.9c-0.8-0.7-1.2-1.7-1.2-3
			c0-1.3,0.5-2.4,1.4-3.2c0.9-0.8,2.1-1.2,3.6-1.2c1.5,0,2.8,0.4,3.7,1.3c0.9,0.9,1.4,2,1.4,3.5l0,0.1h-3c0-0.8-0.2-1.4-0.5-1.9
			c-0.4-0.4-0.9-0.6-1.6-0.6c-0.6,0-1,0.2-1.4,0.6c-0.3,0.4-0.5,0.9-0.5,1.4c0,0.5,0.2,1,0.6,1.3c0.4,0.3,1,0.7,1.9,1.1
			c1.5,0.5,2.7,1.1,3.5,1.9c0.8,0.8,1.2,1.8,1.2,3.1c0,1.4-0.5,2.4-1.4,3.2c-0.9,0.8-2.1,1.2-3.7,1.2c-1.5,0-2.8-0.4-3.8-1.3
			c-1.1-0.8-1.6-2.1-1.5-3.8l0-0.1h3c0,1,0.2,1.7,0.6,2.1c0.4,0.4,1,0.7,1.8,0.7c0.7,0,1.2-0.2,1.5-0.5
			C24.1,457.1,24.2,456.6,24.2,456z"/>
		<path d="M44.9,454.4c0,1.9-0.5,3.3-1.6,4.4c-1,1-2.4,1.6-4.2,1.6c-1.7,0-3.1-0.5-4.2-1.6c-1-1-1.6-2.5-1.6-4.4V450
			c0-1.9,0.5-3.3,1.6-4.4c1-1.1,2.4-1.6,4.2-1.6c1.7,0,3.1,0.5,4.2,1.6s1.6,2.5,1.6,4.4V454.4z M41.9,450c0-1.2-0.2-2-0.7-2.6
			c-0.5-0.6-1.1-0.9-2-0.9c-0.9,0-1.6,0.3-2,0.9c-0.4,0.6-0.7,1.5-0.7,2.6v4.4c0,1.2,0.2,2.1,0.7,2.6c0.5,0.6,1.1,0.9,2,0.9
			s1.6-0.3,2-0.9c0.5-0.6,0.7-1.5,0.7-2.6V450z"/>
		<path d="M61.9,455.2L61.9,455.2c0.1,1.8-0.4,3-1.3,3.9c-0.9,0.8-2.2,1.3-3.8,1.3c-1.7,0-3.1-0.5-4.1-1.5c-1-1-1.5-2.4-1.5-4.3
			v-4.7c0-1.8,0.5-3.3,1.4-4.3c1-1,2.3-1.5,3.9-1.5c1.7,0,3.1,0.4,4,1.3c0.9,0.8,1.4,2.1,1.3,3.8l0,0.1h-3c0-1-0.2-1.7-0.5-2.1
			c-0.4-0.4-1-0.6-1.8-0.6c-0.8,0-1.3,0.3-1.7,0.8c-0.4,0.6-0.6,1.4-0.6,2.5v4.7c0,1.2,0.2,2,0.6,2.6s1,0.8,1.9,0.8
			c0.8,0,1.3-0.2,1.6-0.6c0.3-0.4,0.5-1.1,0.5-2.1H61.9z"/>
		<path d="M72.2,453.5h-0.8v6.6h-3.1v-15.8h3.1v6.5H72l3.4-6.5h3.8l-4.6,7.2l4.9,8.6h-3.9L72.2,453.5z"/>
		<path d="M93,453.1h-4.8v4.6H94v2.4h-8.9v-15.8H94v2.4h-5.8v4H93V453.1z"/>
		<path d="M109.9,446.7h-3.7v13.4h-3.1v-13.4h-3.6v-2.4h10.4V446.7z"/>
		<path d="M122.6,456c0-0.6-0.2-1.1-0.5-1.5c-0.3-0.4-0.9-0.7-1.7-1.1c-1.6-0.6-2.8-1.2-3.7-1.9c-0.8-0.7-1.2-1.7-1.2-3
			c0-1.3,0.5-2.4,1.4-3.2c0.9-0.8,2.1-1.2,3.6-1.2c1.5,0,2.8,0.4,3.7,1.3c0.9,0.9,1.4,2,1.4,3.5l0,0.1h-3c0-0.8-0.2-1.4-0.5-1.9
			c-0.4-0.4-0.9-0.6-1.6-0.6c-0.6,0-1,0.2-1.4,0.6c-0.3,0.4-0.5,0.9-0.5,1.4c0,0.5,0.2,1,0.6,1.3c0.4,0.3,1,0.7,1.9,1.1
			c1.5,0.5,2.7,1.1,3.5,1.9c0.8,0.8,1.2,1.8,1.2,3.1c0,1.4-0.5,2.4-1.4,3.2c-0.9,0.8-2.1,1.2-3.7,1.2c-1.5,0-2.8-0.4-3.8-1.3
			c-1.1-0.8-1.6-2.1-1.5-3.8l0-0.1h3c0,1,0.2,1.7,0.6,2.1c0.4,0.4,1,0.7,1.8,0.7c0.7,0,1.2-0.2,1.5-0.5
			C122.5,457.1,122.6,456.6,122.6,456z"/>
	</g>
</g>
<g>
	<circle class="st3" cx="965.2" cy="614.2" r="68.5"/>
	<g>
		<path d="M929.8,608h4.6v1.9h-7v-12.3h2.4V608z"/>
		<path d="M944.9,607.2h-3.1l-0.7,2.7h-2.5l3.5-12.3h2.5l3.5,12.3h-2.5L944.9,607.2z M942.3,605.3h2.1l-1-3.9h-0.1L942.3,605.3z"/>
		<path d="M957.9,606.7L957.9,606.7l2.4-9.1h3.1v12.3H961v-7.8l-0.1,0l-2.2,7.8h-1.6l-2.2-7.7l-0.1,0v7.7h-2.4v-12.3h3.1
			L957.9,606.7z"/>
		<path d="M968.7,609.8v-12.3h3.5c1.3,0,2.3,0.3,3,0.8c0.7,0.6,1.1,1.4,1.1,2.5c0,0.6-0.1,1.1-0.4,1.6c-0.3,0.5-0.6,0.8-1.2,1
			c0.7,0.1,1.2,0.5,1.5,1c0.3,0.5,0.5,1.1,0.5,1.8c0,1.2-0.3,2.1-1,2.7c-0.7,0.6-1.7,0.9-2.9,0.9H968.7z M971,602.7h1.3
			c0.5,0,0.9-0.2,1.2-0.4c0.3-0.3,0.4-0.7,0.4-1.2c0-0.6-0.1-1-0.4-1.3c-0.3-0.3-0.7-0.4-1.3-0.4H971V602.7z M971,604.4v3.6h1.7
			c0.5,0,0.9-0.1,1.2-0.4c0.3-0.3,0.4-0.7,0.4-1.3c0-0.6-0.1-1-0.4-1.4c-0.2-0.3-0.6-0.5-1.1-0.5h-0.1H971z"/>
		<path d="M981.8,609.8v-12.3h3.8c1.3,0,2.3,0.5,3.2,1.4c0.8,1,1.3,2.2,1.3,3.7v2c0,1.5-0.4,2.7-1.3,3.7c-0.8,1-1.9,1.4-3.2,1.4
			H981.8z M984.2,599.4v8.6h1.4c0.6,0,1.1-0.3,1.5-0.9c0.4-0.6,0.6-1.4,0.6-2.4v-2.1c0-1-0.2-1.7-0.6-2.3c-0.4-0.6-0.9-0.9-1.5-0.9
			H984.2z"/>
		<path d="M1000.4,607.2h-3.1l-0.7,2.7h-2.5l3.5-12.3h2.5l3.5,12.3h-2.5L1000.4,607.2z M997.9,605.3h2.1l-1-3.9h-0.1L997.9,605.3z"
			/>
		<path d="M917.3,625.5h-3.9v5.1H911v-12.3h7v1.9h-4.7v3.4h3.9V625.5z"/>
		<path d="M931.5,618.3v8c0,1.4-0.4,2.5-1.2,3.3c-0.8,0.8-1.9,1.2-3.1,1.2c-1.3,0-2.3-0.4-3.1-1.2c-0.8-0.8-1.2-1.9-1.2-3.3v-8h2.4
			v8c0,0.8,0.2,1.5,0.5,1.9c0.3,0.4,0.8,0.7,1.4,0.7c0.6,0,1.1-0.2,1.4-0.7c0.3-0.4,0.5-1.1,0.5-1.9v-8H931.5z"/>
		<path d="M945.5,630.6h-2.4l-3.9-7.9l-0.1,0v7.8h-2.4v-12.3h2.4l3.9,7.9l0.1,0v-7.9h2.4V630.6z"/>
		<path d="M958.9,626.8L958.9,626.8c0,1.4-0.3,2.4-1,3c-0.7,0.7-1.7,1-3,1c-1.3,0-2.4-0.4-3.2-1.2c-0.8-0.8-1.2-1.9-1.2-3.3v-3.7
			c0-1.4,0.4-2.5,1.1-3.3c0.8-0.8,1.8-1.2,3-1.2c1.3,0,2.4,0.3,3.1,1c0.7,0.7,1.1,1.6,1,3l0,0.1h-2.3c0-0.8-0.1-1.3-0.4-1.7
			c-0.3-0.3-0.7-0.5-1.4-0.5c-0.6,0-1,0.2-1.3,0.6c-0.3,0.4-0.4,1.1-0.4,2v3.7c0,0.9,0.2,1.6,0.5,2c0.3,0.4,0.8,0.6,1.5,0.6
			c0.6,0,1-0.2,1.3-0.5c0.3-0.3,0.4-0.9,0.4-1.7H958.9z"/>
		<path d="M971,620.2h-2.9v10.4h-2.4v-10.4h-2.8v-1.9h8.1V620.2z"/>
		<path d="M978.2,630.6h-2.4v-12.3h2.4V630.6z"/>
		<path d="M992.4,626.2c0,1.4-0.4,2.6-1.2,3.4c-0.8,0.8-1.9,1.2-3.3,1.2c-1.4,0-2.4-0.4-3.3-1.2c-0.8-0.8-1.2-1.9-1.2-3.4v-3.4
			c0-1.4,0.4-2.6,1.2-3.4c0.8-0.8,1.9-1.2,3.3-1.2c1.4,0,2.4,0.4,3.3,1.2c0.8,0.8,1.2,2,1.2,3.4V626.2z M990,622.7
			c0-0.9-0.2-1.6-0.5-2c-0.4-0.5-0.9-0.7-1.6-0.7c-0.7,0-1.2,0.2-1.6,0.7c-0.3,0.5-0.5,1.1-0.5,2v3.5c0,0.9,0.2,1.6,0.5,2.1
			c0.4,0.5,0.9,0.7,1.6,0.7s1.2-0.2,1.6-0.7c0.4-0.5,0.5-1.1,0.5-2.1V622.7z"/>
		<path d="M1006.3,630.6h-2.4l-3.9-7.9l-0.1,0v7.8h-2.4v-12.3h2.4l3.9,7.9l0.1,0v-7.9h2.4V630.6z"/>
		<path d="M1017.1,627.4c0-0.5-0.1-0.9-0.4-1.2c-0.3-0.3-0.7-0.6-1.3-0.8c-1.3-0.4-2.2-0.9-2.8-1.5c-0.6-0.6-1-1.4-1-2.4
			c0-1,0.4-1.8,1.1-2.5c0.7-0.6,1.7-1,2.8-1c1.2,0,2.2,0.3,2.9,1c0.7,0.7,1.1,1.6,1.1,2.7l0,0.1h-2.3c0-0.6-0.1-1.1-0.4-1.5
			c-0.3-0.3-0.7-0.5-1.2-0.5c-0.5,0-0.8,0.2-1.1,0.5c-0.3,0.3-0.4,0.7-0.4,1.1c0,0.4,0.1,0.8,0.4,1c0.3,0.3,0.8,0.6,1.5,0.9
			c1.2,0.4,2.1,0.9,2.7,1.5c0.6,0.6,0.9,1.4,0.9,2.4c0,1.1-0.4,1.9-1.1,2.5c-0.7,0.6-1.7,0.9-2.8,0.9c-1.2,0-2.2-0.3-3-1
			c-0.8-0.7-1.2-1.6-1.2-3l0-0.1h2.3c0,0.8,0.2,1.3,0.5,1.7c0.3,0.3,0.8,0.5,1.4,0.5c0.5,0,0.9-0.1,1.2-0.4
			C1016.9,628.3,1017.1,627.9,1017.1,627.4z"/>
	</g>
</g>
<g>
	<circle class="st2" cx="1167.3" cy="623.3" r="101.8"/>
	<g>
		<path d="M1100.9,609.6c-0.8,1.2-2,2.1-3.6,3c-1.6,0.8-3.6,1.3-6,1.3c-3.1,0-5.6-0.9-7.5-2.7c-1.9-1.8-2.8-4.4-2.8-7.8v-8.8
			c0-3.3,0.9-5.9,2.7-7.7c1.8-1.8,4.3-2.7,7.3-2.7c3.1,0,5.5,0.7,7.1,2.2c1.6,1.5,2.4,3.6,2.3,6.4l0,0.1h-5.3c0-1.5-0.3-2.6-1-3.3
			c-0.7-0.7-1.7-1-3-1c-1.4,0-2.6,0.5-3.4,1.5c-0.8,1-1.2,2.5-1.2,4.5v8.8c0,2.1,0.4,3.6,1.2,4.6c0.8,1,2,1.5,3.5,1.5
			c1.1,0,1.9-0.1,2.6-0.4c0.6-0.3,1.1-0.6,1.4-1v-5.8h-4.4v-3.9h10V609.6z"/>
		<path d="M1133.5,603c0,3.4-1,6.1-2.9,8c-1.9,1.9-4.5,2.9-7.7,2.9c-3.2,0-5.7-1-7.6-2.9c-1.9-1.9-2.9-4.6-2.9-8v-8.1
			c0-3.4,0.9-6,2.8-8c1.9-1.9,4.4-2.9,7.6-2.9c3.2,0,5.7,1,7.7,2.9c1.9,1.9,2.9,4.6,2.9,8V603z M1128,594.8c0-2.1-0.4-3.7-1.3-4.8
			c-0.9-1.1-2.1-1.6-3.7-1.6c-1.6,0-2.9,0.5-3.7,1.6c-0.8,1.1-1.2,2.7-1.2,4.8v8.1c0,2.1,0.4,3.8,1.2,4.8c0.8,1.1,2.1,1.6,3.7,1.6
			s2.9-0.5,3.7-1.6c0.8-1.1,1.3-2.7,1.3-4.8V594.8z"/>
		<path d="M1166.1,603c0,3.4-1,6.1-2.9,8c-1.9,1.9-4.5,2.9-7.7,2.9c-3.2,0-5.7-1-7.6-2.9c-1.9-1.9-2.9-4.6-2.9-8v-8.1
			c0-3.4,0.9-6,2.8-8c1.9-1.9,4.4-2.9,7.6-2.9c3.2,0,5.7,1,7.7,2.9c1.9,1.9,2.9,4.6,2.9,8V603z M1160.5,594.8c0-2.1-0.4-3.7-1.3-4.8
			c-0.9-1.1-2.1-1.6-3.7-1.6c-1.6,0-2.9,0.5-3.7,1.6c-0.8,1.1-1.2,2.7-1.2,4.8v8.1c0,2.1,0.4,3.8,1.2,4.8c0.8,1.1,2.1,1.6,3.7,1.6
			s2.9-0.5,3.7-1.6c0.8-1.1,1.3-2.7,1.3-4.8V594.8z"/>
		<path d="M1197.5,609.6c-0.8,1.2-2,2.1-3.6,3c-1.6,0.8-3.6,1.3-6,1.3c-3.1,0-5.6-0.9-7.5-2.7c-1.9-1.8-2.8-4.4-2.8-7.8v-8.8
			c0-3.3,0.9-5.9,2.7-7.7c1.8-1.8,4.3-2.7,7.3-2.7c3.1,0,5.5,0.7,7.1,2.2c1.6,1.5,2.4,3.6,2.3,6.4l0,0.1h-5.3c0-1.5-0.3-2.6-1-3.3
			c-0.7-0.7-1.7-1-3-1c-1.4,0-2.6,0.5-3.4,1.5c-0.8,1-1.2,2.5-1.2,4.5v8.8c0,2.1,0.4,3.6,1.2,4.6c0.8,1,2,1.5,3.5,1.5
			c1.1,0,1.9-0.1,2.6-0.4c0.6-0.3,1.1-0.6,1.4-1v-5.8h-4.4v-3.9h10V609.6z"/>
		<path d="M1215.2,609h10.8v4.4h-16.4v-28.9h5.6V609z"/>
		<path d="M1251.9,600.6h-8.8v8.4h10.6v4.4h-16.2v-28.9h16.1v4.4h-10.5v7.4h8.8V600.6z"/>
		<path d="M1115.5,653.2l0,0.1c0.1,3.1-0.7,5.4-2.4,7c-1.6,1.5-4,2.3-7,2.3c-3.1,0-5.6-0.9-7.4-2.7c-1.8-1.8-2.7-4.4-2.7-7.8v-8.6
			c0-3.4,0.9-6,2.7-7.8c1.8-1.9,4.2-2.8,7.2-2.8c3.2,0,5.6,0.8,7.3,2.3c1.7,1.5,2.5,3.9,2.5,7l0,0.1h-5.4c0-1.9-0.3-3.1-1-3.9
			c-0.7-0.7-1.8-1.1-3.3-1.1c-1.4,0-2.5,0.5-3.2,1.5c-0.7,1-1.1,2.6-1.1,4.7v8.6c0,2.1,0.4,3.7,1.1,4.7s1.9,1.5,3.4,1.5
			c1.4,0,2.4-0.4,3-1.1c0.6-0.7,0.9-2,0.9-3.9H1115.5z"/>
		<path d="M1132.8,657.8h10.8v4.4h-16.4v-28.9h5.6V657.8z"/>
		<path d="M1174.3,651.7c0,3.4-1,6.1-2.9,8c-1.9,1.9-4.5,2.9-7.7,2.9c-3.2,0-5.7-1-7.6-2.9c-1.9-1.9-2.9-4.6-2.9-8v-8.1
			c0-3.4,0.9-6,2.8-8c1.9-1.9,4.4-2.9,7.6-2.9c3.2,0,5.7,1,7.7,2.9c1.9,1.9,2.9,4.6,2.9,8V651.7z M1168.7,643.6
			c0-2.1-0.4-3.7-1.3-4.8c-0.9-1.1-2.1-1.6-3.7-1.6c-1.6,0-2.9,0.5-3.7,1.6c-0.8,1.1-1.2,2.7-1.2,4.8v8.1c0,2.1,0.4,3.8,1.2,4.8
			c0.8,1.1,2.1,1.6,3.7,1.6s2.9-0.5,3.7-1.6c0.8-1.1,1.3-2.7,1.3-4.8V643.6z"/>
		<path d="M1206.5,633.2v18.9c0,3.3-0.9,5.8-2.8,7.7c-1.9,1.8-4.3,2.8-7.4,2.8c-3,0-5.5-0.9-7.3-2.8c-1.9-1.8-2.8-4.4-2.8-7.7v-18.9
			h5.6v18.9c0,2,0.4,3.5,1.2,4.5c0.8,1,1.9,1.6,3.4,1.6c1.4,0,2.6-0.5,3.4-1.5c0.8-1,1.2-2.5,1.2-4.5v-18.9H1206.5z"/>
		<path d="M1218.9,662.1v-28.9h8.9c3,0,5.5,1.1,7.5,3.4c2,2.3,3,5.2,3,8.7v4.8c0,3.5-1,6.4-3,8.7c-2,2.2-4.5,3.4-7.5,3.4H1218.9z
			 M1224.5,637.6v20.1h3.3c1.4,0,2.6-0.7,3.5-2.1c0.9-1.4,1.3-3.3,1.3-5.5v-4.8c0-2.2-0.4-4.1-1.3-5.5c-0.9-1.4-2.1-2.1-3.5-2.1
			H1224.5z"/>
	</g>
</g>
<g>
	
		<ellipse transform="matrix(0.2336 -0.9723 0.9723 0.2336 322.1728 1353.8097)" class="st0" cx="1019.9" cy="472.5" rx="100" ry="100"/>
	<g>
		<path d="M955.3,441.7l-6.5-1.6l-2.8,5.2l-5.2-1.3l13.6-24.1l5.2,1.2l1.1,27.6l-5.2-1.3L955.3,441.7z M950.8,436.4l4.4,1.1
			l-0.2-8.7l-0.1,0L950.8,436.4z"/>
		<path d="M982.9,447.2l0.1,0l9.5-18l6.6,1.6l-6.2,25.9l-5-1.2l3.9-16.3l-0.1,0l-8.6,15.2l-3.4-0.8l-0.7-17.3l-0.1,0l-3.9,16.2
			l-5-1.2l6.2-25.9l6.5,1.6L982.9,447.2z"/>
		<path d="M1017.1,456.5l-6.5-1.6l-2.8,5.2l-5.2-1.3l13.6-24.1l5.2,1.2l1.1,27.6l-5.2-1.3L1017.1,456.5z M1012.6,451.3l4.4,1.1
			l-0.2-8.7l-0.1,0L1012.6,451.3z"/>
		<path d="M1037.4,463.2l9.4,2.3l-0.9,3.9l-14.9-3.6l0.6-2.5l13.8-17.2l-9.2-2.2l0.9-3.9l14.7,3.5l-0.6,2.4L1037.4,463.2z"/>
		<path d="M1076.4,466.8c-0.7,3-2.2,5.2-4.3,6.5c-2.1,1.3-4.6,1.6-7.5,0.9c-2.9-0.7-4.9-2.1-6.2-4.2c-1.3-2.1-1.6-4.7-0.8-7.7
			l1.7-7.2c0.7-3,2.2-5.2,4.3-6.5c2.1-1.3,4.6-1.6,7.5-0.9c2.9,0.7,4.9,2.1,6.2,4.2c1.3,2.1,1.6,4.7,0.9,7.8L1076.4,466.8z
			 M1073.1,458.4c0.5-1.9,0.4-3.4-0.1-4.5c-0.5-1.1-1.5-1.9-3-2.2c-1.5-0.4-2.7-0.1-3.6,0.6c-1,0.8-1.7,2.1-2.1,4l-1.7,7.3
			c-0.5,1.9-0.4,3.4,0.1,4.6c0.5,1.1,1.5,1.9,3,2.2s2.7,0.1,3.7-0.6c1-0.8,1.7-2.1,2.2-4L1073.1,458.4z"/>
		<path d="M1103.3,483.1l-5-1.2l-4.2-18.5l-0.1,0l-4,16.5l-5-1.2l6.2-25.9l5,1.2l4.2,18.5l0.1,0l4-16.5l5,1.2L1103.3,483.1z"/>
		<path d="M986.6,495.4l-6.5-1.6l-2.8,5.2l-5.2-1.3l13.6-24.1l5.2,1.2l1.1,27.6l-5.2-1.3L986.6,495.4z M982.2,490.1l4.4,1.1
			l-0.2-8.7l-0.1,0L982.2,490.1z"/>
		<path d="M1020,499.3l0.1,0l6.6-15.7l5.1,1.2l-11.3,24.7l-4.7-1.1l0.1-16.9l-0.1,0l-7.6,15.1l-4.7-1.1l1.1-27.1l5.1,1.2l-1.3,17.1
			l0.1,0l7.7-15.5l3.9,0.9L1020,499.3z"/>
		<path d="M1048.3,509c0.2-1,0.2-1.9-0.2-2.6c-0.4-0.7-1.2-1.5-2.4-2.4c-2.4-1.6-4.2-3.1-5.2-4.6c-1.1-1.5-1.3-3.3-0.8-5.5
			c0.5-2.1,1.7-3.7,3.5-4.6c1.8-1,4-1.2,6.3-0.6c2.5,0.6,4.4,1.8,5.5,3.6c1.2,1.8,1.5,3.9,0.8,6.3l-0.1,0.1l-4.9-1.2
			c0.3-1.3,0.3-2.4-0.2-3.3c-0.4-0.8-1.2-1.4-2.3-1.7c-1-0.2-1.8-0.1-2.5,0.4c-0.7,0.5-1.1,1.2-1.4,2.2c-0.2,0.9-0.1,1.7,0.4,2.4
			s1.4,1.6,2.7,2.6c2.3,1.4,3.9,2.9,4.9,4.5c1,1.6,1.2,3.4,0.7,5.6c-0.5,2.2-1.7,3.8-3.5,4.7c-1.8,0.9-4,1.1-6.4,0.5
			c-2.5-0.6-4.4-1.8-5.8-3.6c-1.4-1.8-1.8-4.1-1-6.9l0.1-0.1l4.9,1.2c-0.4,1.6-0.3,2.9,0.1,3.7c0.5,0.9,1.4,1.5,2.6,1.8
			c1.1,0.3,2,0.2,2.6-0.3C1047.6,510.7,1048,510,1048.3,509z"/>
	</g>
</g>
<g>
	<circle class="st2" cx="766.4" cy="224.3" r="105.1"/>
	<g>
		<path d="M711.3,246.3h-8.5l-14-28.1l-0.2,0v28.1h-8.5v-44.1h8.5l14,28.2l0.2,0v-28.1h8.5V246.3z"/>
		<path d="M761.7,230.4c0,5.2-1.5,9.2-4.4,12.1c-2.9,2.9-6.8,4.4-11.7,4.4c-4.9,0-8.7-1.5-11.7-4.4s-4.4-7-4.4-12.1v-12.3
			c0-5.2,1.4-9.2,4.3-12.2c2.9-2.9,6.8-4.4,11.6-4.4c4.9,0,8.8,1.5,11.7,4.4c2.9,2.9,4.4,7,4.4,12.2V230.4z M753.2,218.1
			c0-3.2-0.7-5.6-2-7.3c-1.3-1.6-3.2-2.5-5.6-2.5c-2.5,0-4.3,0.8-5.6,2.4c-1.3,1.6-1.9,4.1-1.9,7.3v12.4c0,3.3,0.6,5.7,1.9,7.4
			c1.3,1.6,3.1,2.5,5.6,2.5s4.4-0.8,5.6-2.5c1.3-1.6,1.9-4.1,1.9-7.4V218.1z"/>
		<path d="M780.1,246.3v-44.1h13.6c4.6,0,8.4,1.7,11.4,5.2c3,3.4,4.5,7.9,4.5,13.2v7.3c0,5.4-1.5,9.8-4.5,13.2
			c-3,3.4-6.8,5.1-11.4,5.1H780.1z M788.6,208.9v30.7h5.1c2.2,0,4-1.1,5.3-3.3c1.4-2.2,2-5,2-8.4v-7.4c0-3.4-0.7-6.2-2-8.4
			c-1.4-2.2-3.1-3.3-5.3-3.3H788.6z"/>
		<path d="M850,226.8h-13.5v12.8h16.1v6.7H828v-44.1h24.6v6.7h-16.1v11.3H850V226.8z"/>
	</g>
</g>
<g>
	
		<ellipse transform="matrix(0.9541 -0.2994 0.2994 0.9541 -13.5663 314.6425)" class="st1" cx="1019.9" cy="201.6" rx="91.6" ry="91.6"/>
	<g>
		<path d="M965.4,228.5c-0.4,1.2-1.1,2.3-2.2,3.4c-1.1,1.1-2.7,2-4.7,2.6c-2.6,0.8-5,0.7-7-0.3c-2.1-1-3.5-3-4.4-5.8l-2.3-7.4
			c-0.9-2.8-0.8-5.2,0.3-7.2s2.9-3.4,5.4-4.2c2.7-0.8,4.8-0.8,6.6,0c1.7,0.8,3,2.4,3.6,4.7l0,0.1l-4.4,1.4c-0.4-1.3-1-2.1-1.7-2.5
			c-0.7-0.4-1.7-0.4-2.8-0.1c-1.2,0.4-2,1.1-2.4,2.2c-0.4,1.1-0.4,2.4,0.2,4.1l2.3,7.4c0.5,1.7,1.3,2.9,2.3,3.6
			c1,0.6,2.1,0.7,3.4,0.3c0.9-0.3,1.6-0.6,2.1-1c0.5-0.4,0.8-0.8,0.9-1.2l-1.5-4.9L955,225l-1-3.3l8.4-2.6L965.4,228.5z"/>
		<path d="M991.1,214.4c0.9,2.9,0.8,5.3-0.3,7.5c-1.1,2.1-3,3.6-5.7,4.4c-2.7,0.8-5.1,0.7-7.2-0.4c-2.1-1.1-3.6-3.1-4.5-5.9
			l-2.1-6.8c-0.9-2.9-0.8-5.3,0.3-7.5c1.1-2.1,3-3.6,5.7-4.4c2.7-0.8,5.1-0.7,7.2,0.4c2.1,1.1,3.6,3.1,4.5,5.9L991.1,214.4z
			 M984.3,209c-0.6-1.8-1.3-3-2.3-3.7c-1-0.7-2.2-0.8-3.5-0.4c-1.4,0.4-2.3,1.2-2.7,2.3c-0.4,1.1-0.3,2.6,0.2,4.3l2.1,6.8
			c0.6,1.8,1.3,3,2.3,3.7c1,0.7,2.2,0.8,3.5,0.4c1.4-0.4,2.3-1.2,2.7-2.3c0.4-1.1,0.4-2.6-0.2-4.4L984.3,209z"/>
		<path d="M1007.6,214.8l9.1-2.8l1.2,3.7l-13.8,4.3l-7.6-24.3l4.7-1.5L1007.6,214.8z"/>
		<path d="M1036.9,203.8l-6.1,1.9l0.3,5.7l-4.9,1.5l-0.7-26.5l4.9-1.5l14.5,22.2l-4.9,1.5L1036.9,203.8z M1030.7,201.7l4.1-1.3
			l-4.4-7.1l-0.1,0L1030.7,201.7z"/>
		<path d="M1070.9,198.9l-4.7,1.5l-12.6-13.1l-0.1,0l4.9,15.5l-4.7,1.5l-7.6-24.3l4.7-1.5l12.6,13.1l0.1,0l-4.9-15.5l4.7-1.5
			L1070.9,198.9z"/>
		<path d="M1096.8,187.3c-0.4,1.2-1.1,2.3-2.2,3.4s-2.7,2-4.7,2.6c-2.6,0.8-5,0.7-7-0.3c-2.1-1-3.5-3-4.4-5.8l-2.3-7.4
			c-0.9-2.8-0.8-5.2,0.3-7.2c1.1-2,2.9-3.4,5.4-4.2c2.7-0.8,4.8-0.8,6.6,0c1.7,0.8,3,2.4,3.6,4.7l0,0.1l-4.4,1.4
			c-0.4-1.3-1-2.1-1.7-2.5c-0.7-0.4-1.7-0.4-2.8-0.1c-1.2,0.4-2,1.1-2.4,2.2c-0.4,1.1-0.4,2.4,0.2,4.1l2.3,7.4
			c0.5,1.7,1.3,2.9,2.3,3.6c1,0.6,2.1,0.7,3.4,0.3c0.9-0.3,1.6-0.6,2.1-1c0.5-0.4,0.8-0.8,0.9-1.2l-1.5-4.9l-3.7,1.2l-1-3.3l8.4-2.6
			L1096.8,187.3z"/>
	</g>
</g>
<g>
	<circle class="st0" cx="1655.4" cy="-874.4" r="241.9"/>
	<g>
		<path d="M1465.6-866.1l0.1,0.2c0.1,4.7-1.1,8.3-3.6,10.6c-2.5,2.4-6.1,3.5-10.7,3.5c-4.7,0-8.5-1.4-11.3-4.2
			c-2.8-2.8-4.2-6.8-4.2-11.9v-13.1c0-5.1,1.3-9.1,4-11.9c2.7-2.8,6.3-4.2,10.9-4.2c4.8,0,8.5,1.2,11.1,3.5
			c2.6,2.3,3.8,5.9,3.8,10.6l-0.1,0.2h-8.3c0-2.8-0.5-4.8-1.5-5.9c-1-1.1-2.7-1.7-5-1.7c-2.1,0-3.7,0.8-4.8,2.3
			c-1.1,1.5-1.6,3.9-1.6,7.1v13.1c0,3.2,0.6,5.6,1.7,7.1c1.2,1.5,2.9,2.3,5.2,2.3c2.1,0,3.6-0.6,4.6-1.7c0.9-1.1,1.4-3.1,1.4-6
			H1465.6z"/>
		<path d="M1492-859.1h16.4v6.7h-25v-44.1h8.5V-859.1z"/>
		<path d="M1555.2-868.3c0,5.2-1.5,9.2-4.4,12.1c-2.9,2.9-6.8,4.4-11.7,4.4c-4.9,0-8.7-1.5-11.7-4.4s-4.4-7-4.4-12.1v-12.3
			c0-5.2,1.4-9.2,4.3-12.2c2.9-2.9,6.8-4.4,11.6-4.4c4.9,0,8.8,1.5,11.7,4.4c2.9,2.9,4.4,7,4.4,12.2V-868.3z M1546.7-880.6
			c0-3.2-0.7-5.6-2-7.3c-1.3-1.6-3.2-2.5-5.6-2.5c-2.5,0-4.3,0.8-5.6,2.4c-1.3,1.6-1.9,4.1-1.9,7.3v12.4c0,3.3,0.6,5.7,1.9,7.4
			c1.3,1.6,3.1,2.5,5.6,2.5s4.4-0.8,5.6-2.5c1.3-1.6,1.9-4.1,1.9-7.4V-880.6z"/>
		<path d="M1604.3-896.5v28.8c0,5-1.4,8.9-4.3,11.7c-2.9,2.8-6.6,4.2-11.2,4.2c-4.6,0-8.3-1.4-11.2-4.2c-2.9-2.8-4.3-6.7-4.3-11.7
			v-28.8h8.5v28.8c0,3,0.6,5.3,1.9,6.9c1.3,1.6,3,2.4,5.1,2.4c2.2,0,3.9-0.8,5.2-2.4c1.2-1.6,1.9-3.9,1.9-6.9v-28.8H1604.3z"/>
		<path d="M1623.2-852.4v-44.1h13.6c4.6,0,8.4,1.7,11.4,5.2c3,3.4,4.5,7.9,4.5,13.2v7.3c0,5.4-1.5,9.8-4.5,13.2
			c-3,3.4-6.8,5.1-11.4,5.1H1623.2z M1631.7-889.8v30.7h5.1c2.2,0,4-1.1,5.3-3.3c1.4-2.2,2-5,2-8.4v-7.4c0-3.4-0.7-6.2-2-8.4
			c-1.4-2.2-3.1-3.3-5.3-3.3H1631.7z"/>
		<path d="M1693.6-870.8h-14v18.4h-8.5v-44.1h25.2v6.7h-16.7v12.3h14V-870.8z"/>
		<path d="M1722.1-859.1h16.4v6.7h-25v-44.1h8.5V-859.1z"/>
		<path d="M1776.2-861.9h-11l-2.5,9.5h-8.9l12.5-44.1h8.8l12.5,44.1h-8.9L1776.2-861.9z M1767-868.7h7.5l-3.7-14h-0.2L1767-868.7z"
			/>
		<path d="M1812.1-870.1v17.7h-8.5v-44h13.2c4.4,0,7.8,1.1,10.3,3.4c2.5,2.3,3.8,5.5,3.8,9.5c0,2.3-0.5,4.3-1.6,5.9
			c-1.1,1.7-2.6,3-4.6,4c2.3,0.8,4,2,5,3.8c1,1.8,1.5,4,1.5,6.7v3.2c0,1.2,0.1,2.5,0.4,3.9c0.3,1.4,0.8,2.3,1.5,3v0.6h-8.8
			c-0.7-0.6-1.2-1.7-1.3-3.2c-0.2-1.5-0.3-2.9-0.3-4.4v-3.1c0-2.2-0.5-4-1.4-5.2c-0.9-1.2-2.3-1.8-4-1.8H1812.1z M1812.1-876.7h4.6
			c1.8,0,3.2-0.5,4.2-1.7c1-1.1,1.4-2.7,1.4-4.7c0-2.1-0.5-3.7-1.4-4.9c-0.9-1.2-2.3-1.8-4.1-1.8h-4.7V-876.7z"/>
		<path d="M1872.2-871.9h-13.5v12.8h16.1v6.7h-24.7v-44.1h24.6v6.7h-16.1v11.3h13.5V-871.9z"/>
	</g>
</g>
<g>
	<circle class="st0" cx="1065.5" cy="78" r="50.6"/>
	<g>
		<path d="M1031.6,81.7v9.9h-5.3V64.3h9.1c2.7,0,4.9,0.8,6.5,2.4c1.6,1.6,2.4,3.7,2.4,6.3c0,2.6-0.8,4.7-2.4,6.3
			c-1.6,1.6-3.8,2.4-6.5,2.4H1031.6z M1031.6,77.6h3.8c1.2,0,2.1-0.4,2.7-1.3c0.6-0.8,0.9-1.9,0.9-3.2c0-1.3-0.3-2.4-0.9-3.3
			c-0.6-0.9-1.5-1.3-2.7-1.3h-3.8V77.6z"/>
		<path d="M1074.8,91.6h-5.3V80.2h-8.8v11.4h-5.3V64.3h5.3v11.8h8.8V64.3h5.3V91.6z"/>
		<path d="M1091.9,81.7v9.9h-5.3V64.3h9.1c2.7,0,4.9,0.8,6.5,2.4c1.6,1.6,2.4,3.7,2.4,6.3c0,2.6-0.8,4.7-2.4,6.3
			c-1.6,1.6-3.8,2.4-6.5,2.4H1091.9z M1091.9,77.6h3.8c1.2,0,2.1-0.4,2.7-1.3c0.6-0.8,0.9-1.9,0.9-3.2c0-1.3-0.3-2.4-0.9-3.3
			c-0.6-0.9-1.5-1.3-2.7-1.3h-3.8V77.6z"/>
	</g>
</g>
<g>
	
		<ellipse transform="matrix(0.9872 -0.1592 0.1592 0.9872 -59.9595 196.691)" class="st0" cx="1197.5" cy="472.5" rx="82.1" ry="82.1"/>
	<g>
		<path d="M1153.3,494l-5.4,0.9l-11.7-16.4l-0.1,0l2.9,17.8l-5.4,0.9l-4.5-28l5.4-0.9l11.8,16.4l0.1,0l-2.9-17.8l5.4-0.9L1153.3,494
			z"/>
		<path d="M1183.6,485.3c-0.6,1.2-1.6,2.4-3,3.4s-3.3,1.8-5.6,2.1c-3,0.5-5.6,0-7.7-1.5c-2.1-1.5-3.4-3.8-3.9-7.1l-1.4-8.5
			c-0.5-3.2,0-5.9,1.5-7.9c1.5-2.1,3.7-3.3,6.6-3.8c3-0.5,5.5-0.1,7.2,1c1.8,1.2,2.9,3.1,3.2,5.8l0,0.1l-5.1,0.8
			c-0.2-1.5-0.7-2.5-1.5-3c-0.7-0.6-1.8-0.7-3.1-0.5c-1.4,0.2-2.4,0.9-3,2c-0.6,1.1-0.8,2.6-0.5,4.6l1.4,8.5c0.3,2,1,3.4,1.9,4.3
			c1,0.8,2.2,1.1,3.6,0.9c1-0.2,1.9-0.4,2.4-0.8c0.6-0.3,1-0.7,1.2-1.2l-0.9-5.6l-4.3,0.7l-0.6-3.7l9.7-1.6L1183.6,485.3z"/>
		<path d="M1201.7,486.2l-5.4,0.9l-4.5-28l5.4-0.9L1201.7,486.2z"/>
		<path d="M1234,481l-5.4,0.9l-11.7-16.4l-0.1,0l2.9,17.8l-5.4,0.9l-4.5-28l5.4-0.9l11.8,16.4l0.1,0l-2.9-17.8l5.4-0.9L1234,481z"/>
		<path d="M1252.2,459.5l0.1,0l2.4-10.5l6.3-1l-4.7,15l9.7,12.9l-6.5,1.1l-5.7-9.4l-0.1,0l-2.5,10.8l-6.3,1l4.9-15.2l-9.2-12.7
			l6.3-1L1252.2,459.5z"/>
	</g>
</g>
<g>
	
		<ellipse transform="matrix(0.9382 -0.3461 0.3461 0.9382 -78.4751 287.744)" class="st1" cx="766.4" cy="363.6" rx="76.5" ry="76.5"/>
	<g>
		<path d="M718.1,384.8l4.5,12.1l-5.8,2.2l-11.1-30.1l9-3.3c3-1.1,5.6-1.2,7.9-0.3c2.3,0.9,4,2.8,5,5.6c0.6,1.6,0.7,3,0.4,4.5
			c-0.3,1.4-1,2.7-2.1,3.9c1.8-0.1,3.2,0.4,4.4,1.4c1.1,1,2,2.3,2.7,4.2l0.8,2.2c0.3,0.8,0.7,1.7,1.3,2.5c0.5,0.9,1.1,1.4,1.8,1.6
			l0.2,0.4l-6,2.2c-0.6-0.3-1.2-0.9-1.7-1.8c-0.5-1-0.9-1.9-1.3-2.9l-0.8-2.1c-0.6-1.5-1.3-2.6-2.3-3.2c-0.9-0.6-2-0.7-3.2-0.3
			L718.1,384.8z M716.4,380.2l3.1-1.2c1.3-0.5,2.1-1.2,2.4-2.2c0.4-1,0.3-2.2-0.2-3.6c-0.5-1.4-1.3-2.4-2.2-3
			c-1-0.6-2.1-0.7-3.3-0.2l-3.2,1.2L716.4,380.2z"/>
		<path d="M758.7,368.4l-9.2,3.4l3.2,8.7l11-4.1l1.7,4.6l-16.9,6.2l-11.1-30.1l16.8-6.2l1.7,4.6l-11,4.1l2.8,7.7l9.2-3.4
			L758.7,368.4z"/>
		<path d="M788,363.8c-0.4-1.2-1.1-2-2-2.5c-0.9-0.5-2.2-0.7-4.1-0.8c-3.5,0.1-6.3-0.3-8.3-1.1c-2.1-0.8-3.6-2.4-4.5-4.9
			c-0.9-2.5-0.8-4.8,0.4-7s3.2-3.8,5.9-4.8c2.9-1.1,5.6-1.1,8-0.1s4.1,2.9,5,5.7l0,0.1l-5.7,2.1c-0.6-1.6-1.4-2.6-2.4-3.2
			c-1-0.5-2.1-0.6-3.4-0.1c-1.1,0.4-1.8,1.1-2.2,2.1c-0.3,1-0.3,2,0.1,3.1c0.4,1,1,1.7,2,2.1c0.9,0.4,2.4,0.7,4.4,0.8
			c3.3-0.1,5.9,0.3,8,1.2c2,0.9,3.5,2.6,4.4,5.1c1,2.6,0.8,4.9-0.4,7c-1.2,2.1-3.3,3.7-6.2,4.8c-2.9,1.1-5.6,1.2-8.2,0.3
			c-2.6-0.8-4.5-2.9-5.6-6.2l0-0.1l5.7-2.1c0.7,1.9,1.6,3.1,2.7,3.7c1.1,0.5,2.3,0.5,3.8,0c1.3-0.5,2.1-1.2,2.4-2.1
			C788.5,366,788.4,365,788,363.8z"/>
		<path d="M817.7,332.7l-7.1,2.6l9.4,25.5l-5.9,2.2l-9.4-25.5l-6.9,2.5l-1.7-4.6l19.8-7.3L817.7,332.7z"/>
	</g>
</g>
<g>
	<circle class="st2" cx="1102.5" cy="315.3" r="71.9"/>
	<g>
		<path d="M1056.9,309.5L1056.9,309.5l3.9-15h5.1v20.2h-3.9V302l-0.1,0l-3.6,12.7h-2.6l-3.6-12.6l-0.1,0v12.6h-3.9v-20.2h5.1
			L1056.9,309.5z"/>
		<path d="M1089,307.4c0,2.4-0.7,4.2-2,5.6c-1.3,1.3-3.1,2-5.4,2c-2.2,0-4-0.7-5.3-2c-1.3-1.3-2-3.2-2-5.6v-5.6c0-2.4,0.7-4.2,2-5.6
			c1.3-1.3,3.1-2,5.3-2c2.2,0,4,0.7,5.4,2c1.3,1.3,2,3.2,2,5.6V307.4z M1085.1,301.7c0-1.5-0.3-2.6-0.9-3.3
			c-0.6-0.7-1.5-1.1-2.6-1.1c-1.1,0-2,0.4-2.6,1.1c-0.6,0.7-0.9,1.9-0.9,3.3v5.7c0,1.5,0.3,2.6,0.9,3.4c0.6,0.7,1.4,1.1,2.6,1.1
			c1.1,0,2-0.4,2.6-1.1c0.6-0.7,0.9-1.9,0.9-3.4V301.7z"/>
		<path d="M1111.7,314.7h-3.9l-6.4-12.9l-0.1,0v12.9h-3.9v-20.2h3.9l6.4,12.9l0.1,0v-12.9h3.9V314.7z"/>
		<path d="M1134,312c-0.6,0.8-1.4,1.5-2.5,2.1c-1.1,0.6-2.5,0.9-4.2,0.9c-2.2,0-3.9-0.6-5.3-1.9c-1.3-1.3-2-3.1-2-5.4v-6.1
			c0-2.3,0.6-4.1,1.9-5.4c1.3-1.3,3-1.9,5.1-1.9c2.2,0,3.9,0.5,5,1.6c1.1,1,1.7,2.5,1.6,4.4l0,0.1h-3.7c0-1.1-0.2-1.8-0.7-2.3
			c-0.5-0.5-1.2-0.7-2.1-0.7c-1,0-1.8,0.4-2.4,1.1c-0.6,0.7-0.8,1.8-0.8,3.2v6.2c0,1.4,0.3,2.5,0.9,3.2c0.6,0.7,1.4,1.1,2.5,1.1
			c0.8,0,1.4-0.1,1.8-0.3c0.4-0.2,0.8-0.4,1-0.7v-4.1h-3.1v-2.7h7V312z"/>
		<path d="M1156.9,307.4c0,2.4-0.7,4.2-2,5.6c-1.3,1.3-3.1,2-5.4,2c-2.2,0-4-0.7-5.3-2c-1.3-1.3-2-3.2-2-5.6v-5.6
			c0-2.4,0.7-4.2,2-5.6c1.3-1.3,3.1-2,5.3-2c2.2,0,4,0.7,5.4,2c1.3,1.3,2,3.2,2,5.6V307.4z M1153,301.7c0-1.5-0.3-2.6-0.9-3.3
			c-0.6-0.7-1.5-1.1-2.6-1.1c-1.1,0-2,0.4-2.6,1.1c-0.6,0.7-0.9,1.9-0.9,3.3v5.7c0,1.5,0.3,2.6,0.9,3.4c0.6,0.7,1.4,1.1,2.6,1.1
			c1.1,0,2-0.4,2.6-1.1c0.6-0.7,0.9-1.9,0.9-3.4V301.7z"/>
		<path d="M1085,348.8v-20.2h6.2c2.1,0,3.9,0.8,5.2,2.4c1.4,1.6,2.1,3.6,2.1,6.1v3.3c0,2.5-0.7,4.5-2.1,6.1
			c-1.4,1.6-3.1,2.4-5.2,2.4H1085z M1088.9,331.7v14.1h2.3c1,0,1.8-0.5,2.4-1.5c0.6-1,0.9-2.3,0.9-3.9V337c0-1.6-0.3-2.8-0.9-3.8
			c-0.6-1-1.4-1.5-2.4-1.5H1088.9z"/>
		<path d="M1107,348.8v-20.2h5.8c2.1,0,3.8,0.5,4.9,1.4c1.2,0.9,1.8,2.3,1.8,4.1c0,1-0.2,1.8-0.6,2.5c-0.4,0.7-1.1,1.3-1.9,1.7
			c1.1,0.2,2,0.8,2.5,1.6c0.6,0.9,0.8,1.8,0.8,3c0,1.9-0.6,3.4-1.7,4.4c-1.1,1-2.7,1.5-4.8,1.5H1107z M1110.9,337.1h2.1
			c0.8,0,1.5-0.3,1.9-0.7c0.4-0.5,0.7-1.1,0.7-2c0-1-0.2-1.7-0.7-2.1c-0.5-0.5-1.2-0.7-2.1-0.7h-1.9V337.1z M1110.9,339.8v5.9h2.9
			c0.9,0,1.5-0.2,1.9-0.7c0.4-0.5,0.7-1.2,0.7-2.1c0-1-0.2-1.7-0.6-2.2c-0.4-0.5-1-0.8-1.9-0.8h-0.1H1110.9z"/>
	</g>
</g>
<g>
	<circle class="st3" cx="871.5" cy="492.9" r="66.9"/>
	<g>
		<path d="M844.9,484.7L844.9,484.7l2.6-10.1h3.5v13.6h-2.6v-8.6l-0.1,0l-2.5,8.6H844l-2.4-8.5l-0.1,0v8.5h-2.6v-13.6h3.4
			L844.9,484.7z"/>
		<path d="M859.6,488.2H857v-13.6h2.6V488.2z"/>
		<path d="M874.6,484L874.6,484c0,1.5-0.3,2.6-1.1,3.3c-0.8,0.7-1.9,1.1-3.3,1.1c-1.5,0-2.6-0.4-3.5-1.3c-0.9-0.9-1.3-2.1-1.3-3.7
			v-4c0-1.6,0.4-2.8,1.2-3.7c0.8-0.9,2-1.3,3.4-1.3c1.5,0,2.6,0.4,3.4,1.1c0.8,0.7,1.2,1.8,1.2,3.3l0,0.1h-2.6
			c0-0.9-0.2-1.5-0.5-1.8c-0.3-0.3-0.8-0.5-1.5-0.5c-0.7,0-1.2,0.2-1.5,0.7c-0.3,0.5-0.5,1.2-0.5,2.2v4.1c0,1,0.2,1.7,0.5,2.2
			c0.4,0.5,0.9,0.7,1.6,0.7c0.7,0,1.1-0.2,1.4-0.5c0.3-0.3,0.4-1,0.4-1.8H874.6z"/>
		<path d="M882.8,482.7v5.5h-2.6v-13.6h4.1c1.4,0,2.4,0.4,3.2,1.1c0.8,0.7,1.2,1.7,1.2,2.9c0,0.7-0.2,1.3-0.5,1.8
			c-0.3,0.5-0.8,0.9-1.4,1.2c0.7,0.2,1.2,0.6,1.5,1.2c0.3,0.5,0.5,1.2,0.5,2.1v1c0,0.4,0,0.8,0.1,1.2c0.1,0.4,0.2,0.7,0.5,0.9v0.2
			h-2.7c-0.2-0.2-0.4-0.5-0.4-1c-0.1-0.5-0.1-0.9-0.1-1.4v-1c0-0.7-0.1-1.2-0.4-1.6c-0.3-0.4-0.7-0.6-1.2-0.6H882.8z M882.8,480.7
			h1.4c0.6,0,1-0.2,1.3-0.5c0.3-0.3,0.4-0.8,0.4-1.4c0-0.6-0.1-1.1-0.4-1.5c-0.3-0.4-0.7-0.6-1.3-0.6h-1.4V480.7z"/>
		<path d="M904.2,483.3c0,1.6-0.5,2.9-1.4,3.8s-2.1,1.3-3.6,1.3c-1.5,0-2.7-0.4-3.6-1.3c-0.9-0.9-1.3-2.1-1.3-3.8v-3.8
			c0-1.6,0.4-2.8,1.3-3.8c0.9-0.9,2.1-1.4,3.6-1.4c1.5,0,2.7,0.5,3.6,1.4c0.9,0.9,1.4,2.2,1.4,3.8V483.3z M901.6,479.4
			c0-1-0.2-1.7-0.6-2.2c-0.4-0.5-1-0.8-1.7-0.8c-0.8,0-1.3,0.3-1.7,0.8c-0.4,0.5-0.6,1.3-0.6,2.3v3.8c0,1,0.2,1.8,0.6,2.3
			c0.4,0.5,1,0.8,1.7,0.8s1.3-0.3,1.7-0.8c0.4-0.5,0.6-1.3,0.6-2.3V479.4z"/>
		<path d="M827.1,507.6c0-0.5-0.1-1-0.4-1.3c-0.3-0.3-0.8-0.6-1.5-0.9c-1.4-0.5-2.4-1.1-3.2-1.7c-0.7-0.6-1.1-1.5-1.1-2.6
			c0-1.1,0.4-2,1.2-2.7c0.8-0.7,1.8-1.1,3.1-1.1c1.3,0,2.4,0.4,3.2,1.1c0.8,0.7,1.2,1.8,1.2,3l0,0.1H827c0-0.7-0.2-1.2-0.5-1.6
			c-0.3-0.4-0.8-0.5-1.4-0.5c-0.5,0-0.9,0.2-1.2,0.5c-0.3,0.3-0.4,0.7-0.4,1.2c0,0.5,0.2,0.8,0.5,1.1c0.3,0.3,0.9,0.6,1.6,1
			c1.3,0.4,2.3,1,3,1.7c0.7,0.7,1,1.6,1,2.7c0,1.2-0.4,2.1-1.2,2.8c-0.8,0.7-1.8,1-3.2,1c-1.3,0-2.4-0.4-3.3-1.1s-1.4-1.8-1.3-3.3
			l0-0.1h2.6c0,0.9,0.2,1.5,0.5,1.8c0.3,0.4,0.9,0.6,1.5,0.6c0.6,0,1-0.2,1.3-0.5C826.9,508.6,827.1,508.2,827.1,507.6z"/>
		<path d="M842.1,505.2h-4.2v4h5v2.1h-7.6v-13.6h7.6v2.1h-5v3.5h4.2V505.2z"/>
		<path d="M851,505.7v5.5h-2.6v-13.6h4.1c1.4,0,2.4,0.4,3.2,1.1c0.8,0.7,1.2,1.7,1.2,2.9c0,0.7-0.2,1.3-0.5,1.8
			c-0.3,0.5-0.8,0.9-1.4,1.2c0.7,0.2,1.2,0.6,1.5,1.2c0.3,0.5,0.5,1.2,0.5,2.1v1c0,0.4,0,0.8,0.1,1.2c0.1,0.4,0.2,0.7,0.5,0.9v0.2
			h-2.7c-0.2-0.2-0.4-0.5-0.4-1c-0.1-0.5-0.1-0.9-0.1-1.4v-1c0-0.7-0.1-1.2-0.4-1.6c-0.3-0.4-0.7-0.6-1.2-0.6H851z M851,503.7h1.4
			c0.6,0,1-0.2,1.3-0.5c0.3-0.3,0.4-0.8,0.4-1.4c0-0.6-0.1-1.1-0.4-1.5c-0.3-0.4-0.7-0.6-1.3-0.6H851V503.7z"/>
		<path d="M866.8,507.7l0.1,0.6h0.1l0.1-0.5l2.4-10.2h2.8l-3.9,13.6h-2.7l-3.9-13.6h2.8L866.8,507.7z"/>
		<path d="M879.9,511.2h-2.6v-13.6h2.6V511.2z"/>
		<path d="M894.9,506.9L894.9,506.9c0,1.5-0.3,2.6-1.1,3.3c-0.8,0.7-1.9,1.1-3.3,1.1c-1.5,0-2.6-0.4-3.5-1.3
			c-0.9-0.9-1.3-2.1-1.3-3.7v-4c0-1.6,0.4-2.8,1.2-3.7c0.8-0.9,2-1.3,3.4-1.3c1.5,0,2.6,0.4,3.4,1.1c0.8,0.7,1.2,1.8,1.2,3.3l0,0.1
			h-2.6c0-0.9-0.2-1.5-0.5-1.8c-0.3-0.3-0.8-0.5-1.5-0.5c-0.7,0-1.2,0.2-1.5,0.7c-0.3,0.5-0.5,1.2-0.5,2.2v4.1c0,1,0.2,1.7,0.5,2.2
			c0.4,0.5,0.9,0.7,1.6,0.7c0.7,0,1.1-0.2,1.4-0.5c0.3-0.3,0.4-1,0.4-1.8H894.9z"/>
		<path d="M907.3,505.2h-4.2v4h5v2.1h-7.6v-13.6h7.6v2.1h-5v3.5h4.2V505.2z"/>
		<path d="M919.6,507.6c0-0.5-0.1-1-0.4-1.3c-0.3-0.3-0.8-0.6-1.5-0.9c-1.4-0.5-2.4-1.1-3.2-1.7c-0.7-0.6-1.1-1.5-1.1-2.6
			c0-1.1,0.4-2,1.2-2.7c0.8-0.7,1.8-1.1,3.1-1.1c1.3,0,2.4,0.4,3.2,1.1c0.8,0.7,1.2,1.8,1.2,3l0,0.1h-2.6c0-0.7-0.2-1.2-0.5-1.6
			c-0.3-0.4-0.8-0.5-1.4-0.5c-0.5,0-0.9,0.2-1.2,0.5c-0.3,0.3-0.4,0.7-0.4,1.2c0,0.5,0.2,0.8,0.5,1.1c0.3,0.3,0.9,0.6,1.6,1
			c1.3,0.4,2.3,1,3,1.7c0.7,0.7,1,1.6,1,2.7c0,1.2-0.4,2.1-1.2,2.8c-0.8,0.7-1.8,1-3.2,1c-1.3,0-2.4-0.4-3.3-1.1s-1.4-1.8-1.3-3.3
			l0-0.1h2.6c0,0.9,0.2,1.5,0.5,1.8s0.9,0.6,1.5,0.6c0.6,0,1-0.2,1.3-0.5C919.5,508.6,919.6,508.2,919.6,507.6z"/>
	</g>
</g>
<g>
	
		<ellipse transform="matrix(0.9896 -0.1441 0.1441 0.9896 -6.5315 104.6998)" class="st1" cx="719.6" cy="97.4" rx="57.5" ry="57.5"/>
	<g>
		<path d="M677.4,104.5l-4.5,0.7l0.6,4.2l5.4-0.8l0.3,2.2L671,112l-2.1-14.6l8.2-1.2l0.3,2.2l-5.3,0.8l0.5,3.7l4.5-0.7L677.4,104.5z
			"/>
		<path d="M688.3,99.8L688.3,99.8l1.4-5.5l3.3-0.5l-2.6,7.8l5,6.8l-3.4,0.5l-2.9-5l-0.1,0l-1.4,5.6l-3.3,0.5l2.7-7.9l-4.7-6.7
			l3.3-0.5L688.3,99.8z"/>
		<path d="M702.7,102l0.8,5.3l-2.8,0.4L698.6,93l4.9-0.7c1.5-0.2,2.7,0,3.7,0.8c1,0.7,1.6,1.8,1.8,3.2c0.2,1.4-0.1,2.6-0.8,3.6
			c-0.7,1-1.8,1.6-3.3,1.8L702.7,102z M702.4,99.7l2.1-0.3c0.6-0.1,1.1-0.4,1.4-0.9c0.3-0.5,0.3-1.1,0.2-1.8
			c-0.1-0.7-0.4-1.3-0.8-1.7c-0.4-0.4-0.9-0.6-1.6-0.5l-2.1,0.3L702.4,99.7z"/>
		<path d="M718.2,99.1l0.9,5.9l-2.8,0.4l-2.1-14.6l4.4-0.6c1.5-0.2,2.7,0,3.6,0.6c0.9,0.6,1.5,1.6,1.7,3c0.1,0.8,0,1.4-0.2,2
			c-0.3,0.6-0.7,1.1-1.3,1.5c0.8,0.1,1.4,0.5,1.8,1c0.4,0.5,0.7,1.3,0.8,2.1l0.2,1.1c0.1,0.4,0.2,0.8,0.3,1.3
			c0.2,0.4,0.4,0.7,0.6,0.9l0,0.2l-2.9,0.4c-0.3-0.2-0.5-0.5-0.6-1c-0.1-0.5-0.2-1-0.3-1.4l-0.1-1c-0.1-0.7-0.3-1.3-0.7-1.7
			c-0.4-0.4-0.8-0.5-1.4-0.4L718.2,99.1z M717.9,96.9l1.5-0.2c0.6-0.1,1-0.3,1.3-0.8c0.3-0.4,0.3-1,0.3-1.6
			c-0.1-0.7-0.3-1.2-0.7-1.6c-0.4-0.4-0.9-0.5-1.5-0.4l-1.5,0.2L717.9,96.9z"/>
		<path d="M738.1,95.6l-4.5,0.7l0.6,4.2l5.4-0.8l0.3,2.2l-8.2,1.2l-2.1-14.6l8.2-1.2l0.3,2.2l-5.3,0.8l0.5,3.7l4.5-0.7L738.1,95.6z"
			/>
		<path d="M751.7,96.4c-0.1-0.6-0.3-1-0.6-1.3c-0.3-0.3-0.9-0.5-1.7-0.8c-1.6-0.3-2.8-0.7-3.6-1.3c-0.9-0.6-1.4-1.4-1.5-2.6
			c-0.2-1.2,0.1-2.2,0.9-3.1c0.8-0.9,1.8-1.4,3.1-1.6c1.4-0.2,2.6,0,3.6,0.7c1,0.7,1.6,1.7,1.7,3.1l0,0.1l-2.8,0.4
			c-0.1-0.8-0.4-1.3-0.8-1.6c-0.4-0.3-0.9-0.5-1.5-0.4c-0.5,0.1-0.9,0.3-1.2,0.7c-0.2,0.4-0.3,0.9-0.3,1.4c0.1,0.5,0.3,0.9,0.7,1.2
			c0.4,0.3,1,0.5,1.9,0.8c1.5,0.3,2.6,0.7,3.5,1.3c0.8,0.6,1.3,1.5,1.5,2.7c0.2,1.3-0.1,2.3-0.8,3.1c-0.7,0.8-1.8,1.4-3.2,1.6
			c-1.4,0.2-2.6,0-3.7-0.6c-1.1-0.6-1.7-1.7-1.9-3.3l0-0.1l2.8-0.4c0.1,0.9,0.4,1.5,0.8,1.9c0.4,0.3,1,0.5,1.7,0.4
			c0.6-0.1,1-0.3,1.3-0.7C751.7,97.4,751.8,96.9,751.7,96.4z"/>
		<path d="M767,94.1c-0.1-0.6-0.3-1-0.6-1.3c-0.3-0.3-0.9-0.5-1.7-0.8c-1.6-0.3-2.8-0.7-3.6-1.3c-0.9-0.6-1.4-1.4-1.5-2.6
			c-0.2-1.2,0.1-2.2,0.9-3.1c0.8-0.9,1.8-1.4,3.1-1.6c1.4-0.2,2.6,0,3.6,0.7c1,0.7,1.6,1.7,1.7,3.1l0,0.1l-2.8,0.4
			c-0.1-0.8-0.4-1.3-0.8-1.6c-0.4-0.3-0.9-0.5-1.5-0.4c-0.5,0.1-0.9,0.3-1.2,0.7c-0.2,0.4-0.3,0.9-0.3,1.4c0.1,0.5,0.3,0.9,0.7,1.2
			c0.4,0.3,1,0.5,1.9,0.8c1.5,0.3,2.6,0.7,3.5,1.3c0.8,0.6,1.3,1.5,1.5,2.7c0.2,1.3-0.1,2.3-0.8,3.1c-0.7,0.8-1.8,1.4-3.2,1.6
			c-1.4,0.2-2.6,0-3.7-0.6c-1.1-0.6-1.7-1.7-1.9-3.3l0-0.1l2.8-0.4c0.1,0.9,0.4,1.5,0.8,1.9c0.4,0.3,1,0.5,1.7,0.4
			c0.6-0.1,1-0.3,1.3-0.7C767,95.2,767,94.7,767,94.1z"/>
	</g>
</g>
<g>
	<circle class="st3" cx="790.9" cy="625.7" r="79"/>
	<g>
		<path d="M738.4,617.4L738.4,617.4c0,1.4-0.3,2.4-1,3.1c-0.7,0.7-1.7,1-3.1,1c-1.4,0-2.4-0.4-3.2-1.2c-0.8-0.8-1.2-1.9-1.2-3.4
			v-3.8c0-1.5,0.4-2.6,1.2-3.4c0.8-0.8,1.8-1.2,3.1-1.2c1.4,0,2.4,0.3,3.2,1c0.7,0.7,1.1,1.7,1.1,3.1l0,0.1h-2.4
			c0-0.8-0.1-1.4-0.4-1.7c-0.3-0.3-0.8-0.5-1.4-0.5c-0.6,0-1.1,0.2-1.4,0.7c-0.3,0.4-0.5,1.1-0.5,2v3.8c0,0.9,0.2,1.6,0.5,2
			c0.3,0.4,0.8,0.7,1.5,0.7c0.6,0,1-0.2,1.3-0.5c0.3-0.3,0.4-0.9,0.4-1.7H738.4z"/>
		<path d="M752.5,616.8c0,1.5-0.4,2.7-1.3,3.5c-0.8,0.8-2,1.3-3.4,1.3c-1.4,0-2.5-0.4-3.3-1.3s-1.3-2-1.3-3.5v-3.5
			c0-1.5,0.4-2.6,1.2-3.5c0.8-0.8,1.9-1.3,3.3-1.3c1.4,0,2.5,0.4,3.4,1.3s1.3,2,1.3,3.5V616.8z M750.1,613.2c0-0.9-0.2-1.6-0.6-2.1
			c-0.4-0.5-0.9-0.7-1.6-0.7c-0.7,0-1.2,0.2-1.6,0.7c-0.4,0.5-0.5,1.2-0.5,2.1v3.6c0,0.9,0.2,1.6,0.5,2.1c0.4,0.5,0.9,0.7,1.6,0.7
			s1.3-0.2,1.6-0.7c0.4-0.5,0.6-1.2,0.6-2.1V613.2z"/>
		<path d="M766.8,621.4h-2.5l-4-8.1l-0.1,0v8.1h-2.5v-12.7h2.5l4,8.1l0.1,0v-8.1h2.5V621.4z"/>
		<path d="M779.6,610.6h-3v10.7h-2.5v-10.7h-2.9v-1.9h8.3V610.6z"/>
		<path d="M787,621.4h-2.4v-12.7h2.4V621.4z"/>
		<path d="M801.6,621.4h-2.5l-4-8.1l-0.1,0v8.1h-2.5v-12.7h2.5l4,8.1l0.1,0v-8.1h2.5V621.4z"/>
		<path d="M809.7,621.4h-2.4v-12.7h2.4V621.4z"/>
		<path d="M824.3,616.8c0,1.5-0.4,2.7-1.3,3.5c-0.8,0.8-2,1.3-3.4,1.3c-1.4,0-2.5-0.4-3.3-1.3c-0.8-0.8-1.3-2-1.3-3.5v-3.5
			c0-1.5,0.4-2.6,1.2-3.5c0.8-0.8,1.9-1.3,3.3-1.3c1.4,0,2.5,0.4,3.4,1.3s1.3,2,1.3,3.5V616.8z M821.9,613.2c0-0.9-0.2-1.6-0.6-2.1
			c-0.4-0.5-0.9-0.7-1.6-0.7c-0.7,0-1.2,0.2-1.6,0.7c-0.4,0.5-0.5,1.2-0.5,2.1v3.6c0,0.9,0.2,1.6,0.5,2.1c0.4,0.5,0.9,0.7,1.6,0.7
			s1.3-0.2,1.6-0.7c0.4-0.5,0.6-1.2,0.6-2.1V613.2z"/>
		<path d="M838.4,608.7v8.3c0,1.4-0.4,2.6-1.2,3.4c-0.8,0.8-1.9,1.2-3.2,1.2c-1.3,0-2.4-0.4-3.2-1.2c-0.8-0.8-1.2-1.9-1.2-3.4v-8.3
			h2.4v8.3c0,0.9,0.2,1.5,0.5,2c0.4,0.5,0.8,0.7,1.5,0.7c0.6,0,1.1-0.2,1.5-0.7c0.4-0.5,0.5-1.1,0.5-2v-8.3H838.4z"/>
		<path d="M849.4,618.1c0-0.5-0.1-0.9-0.4-1.2c-0.3-0.3-0.7-0.6-1.4-0.9c-1.3-0.5-2.3-1-2.9-1.6c-0.7-0.6-1-1.4-1-2.4
			c0-1,0.4-1.9,1.1-2.5c0.7-0.7,1.7-1,2.9-1c1.2,0,2.2,0.3,3,1c0.7,0.7,1.1,1.6,1.1,2.8l0,0.1h-2.4c0-0.7-0.1-1.2-0.4-1.5
			c-0.3-0.3-0.7-0.5-1.3-0.5c-0.5,0-0.8,0.2-1.1,0.5c-0.3,0.3-0.4,0.7-0.4,1.2c0,0.4,0.1,0.8,0.4,1.1c0.3,0.3,0.8,0.6,1.5,0.9
			c1.2,0.4,2.1,0.9,2.8,1.5c0.6,0.6,0.9,1.5,0.9,2.5c0,1.1-0.4,1.9-1.1,2.6c-0.7,0.6-1.7,0.9-2.9,0.9c-1.2,0-2.2-0.3-3.1-1
			c-0.9-0.7-1.3-1.7-1.2-3.1l0-0.1h2.4c0,0.8,0.2,1.4,0.5,1.7c0.3,0.3,0.8,0.5,1.4,0.5c0.5,0,0.9-0.1,1.2-0.4
			C849.3,618.9,849.4,618.6,849.4,618.1z"/>
		<path d="M728.2,642.7h-2.4v-12.7h2.4V642.7z"/>
		<path d="M742.8,642.7h-2.5l-4-8.1l-0.1,0v8.1h-2.5v-12.7h2.5l4,8.1l0.1,0v-8.1h2.5V642.7z"/>
		<path d="M755.7,632h-3v10.7h-2.5V632h-2.9v-1.9h8.3V632z"/>
		<path d="M766.8,637.1h-3.9v3.7h4.6v1.9h-7.1v-12.7h7.1v1.9h-4.6v3.2h3.9V637.1z"/>
		<path d="M781.1,641.1c-0.4,0.5-0.9,0.9-1.6,1.3c-0.7,0.4-1.6,0.5-2.6,0.5c-1.4,0-2.5-0.4-3.3-1.2s-1.2-1.9-1.2-3.4v-3.8
			c0-1.5,0.4-2.6,1.2-3.4c0.8-0.8,1.9-1.2,3.2-1.2c1.4,0,2.4,0.3,3.1,1c0.7,0.7,1,1.6,1,2.8l0,0.1h-2.3c0-0.7-0.1-1.1-0.4-1.4
			c-0.3-0.3-0.7-0.5-1.3-0.5c-0.6,0-1.1,0.2-1.5,0.7c-0.4,0.4-0.5,1.1-0.5,2v3.9c0,0.9,0.2,1.6,0.5,2c0.4,0.4,0.9,0.7,1.5,0.7
			c0.5,0,0.8-0.1,1.1-0.2c0.3-0.1,0.5-0.3,0.6-0.4v-2.6h-1.9v-1.7h4.4V641.1z"/>
		<path d="M788.9,637.6v5.1h-2.5v-12.6h3.8c1.3,0,2.2,0.3,3,1c0.7,0.7,1.1,1.6,1.1,2.7c0,0.7-0.2,1.2-0.5,1.7
			c-0.3,0.5-0.7,0.9-1.3,1.1c0.7,0.2,1.1,0.6,1.4,1.1c0.3,0.5,0.4,1.1,0.4,1.9v0.9c0,0.4,0,0.7,0.1,1.1c0.1,0.4,0.2,0.7,0.4,0.9v0.2
			h-2.5c-0.2-0.2-0.3-0.5-0.4-0.9s-0.1-0.8-0.1-1.3v-0.9c0-0.6-0.1-1.1-0.4-1.5c-0.3-0.4-0.6-0.5-1.1-0.5H788.9z M788.9,635.7h1.3
			c0.5,0,0.9-0.2,1.2-0.5c0.3-0.3,0.4-0.8,0.4-1.3c0-0.6-0.1-1.1-0.4-1.4c-0.3-0.3-0.7-0.5-1.2-0.5h-1.3V635.7z"/>
		<path d="M805.5,640h-3.2l-0.7,2.7H799l3.6-12.7h2.5l3.6,12.7h-2.6L805.5,640z M802.8,638.1h2.2l-1.1-4h-0.1L802.8,638.1z"/>
		<path d="M819.8,632h-3v10.7h-2.5V632h-2.9v-1.9h8.3V632z"/>
		<path d="M827.2,642.7h-2.4v-12.7h2.4V642.7z"/>
		<path d="M841.8,638.2c0,1.5-0.4,2.7-1.3,3.5c-0.8,0.8-2,1.3-3.4,1.3c-1.4,0-2.5-0.4-3.3-1.3c-0.8-0.8-1.3-2-1.3-3.5v-3.5
			c0-1.5,0.4-2.6,1.2-3.5c0.8-0.8,1.9-1.3,3.3-1.3c1.4,0,2.5,0.4,3.4,1.3c0.8,0.8,1.3,2,1.3,3.5V638.2z M839.4,634.6
			c0-0.9-0.2-1.6-0.6-2.1c-0.4-0.5-0.9-0.7-1.6-0.7c-0.7,0-1.2,0.2-1.6,0.7c-0.4,0.5-0.5,1.2-0.5,2.1v3.6c0,0.9,0.2,1.6,0.5,2.1
			c0.4,0.5,0.9,0.7,1.6,0.7s1.3-0.2,1.6-0.7c0.4-0.5,0.6-1.2,0.6-2.1V634.6z"/>
		<path d="M856,642.7h-2.5l-4-8.1l-0.1,0v8.1h-2.5v-12.7h2.5l4,8.1l0.1,0v-8.1h2.5V642.7z"/>
	</g>
</g>
<g>
	<circle class="st3" cx="627.6" cy="667.1" r="70.3"/>
	<g>
		<path d="M572.3,676.4v-18.5h5.7c1.9,0,3.5,0.7,4.8,2.2c1.3,1.4,1.9,3.3,1.9,5.6v3.1c0,2.3-0.6,4.1-1.9,5.6
			c-1.3,1.4-2.9,2.2-4.8,2.2H572.3z M575.9,660.7v12.9h2.1c0.9,0,1.7-0.5,2.2-1.4s0.9-2.1,0.9-3.5v-3.1c0-1.4-0.3-2.6-0.9-3.5
			s-1.3-1.4-2.2-1.4H575.9z"/>
		<path d="M605.5,669.7c0,2.2-0.6,3.9-1.8,5.1c-1.2,1.2-2.9,1.8-4.9,1.8c-2,0-3.7-0.6-4.9-1.8c-1.2-1.2-1.8-2.9-1.8-5.1v-5.2
			c0-2.2,0.6-3.9,1.8-5.1c1.2-1.2,2.8-1.8,4.9-1.8c2,0,3.7,0.6,4.9,1.8c1.2,1.2,1.8,2.9,1.8,5.1V669.7z M602,664.5
			c0-1.3-0.3-2.4-0.8-3.1s-1.3-1-2.4-1c-1,0-1.8,0.3-2.4,1c-0.5,0.7-0.8,1.7-0.8,3.1v5.2c0,1.4,0.3,2.4,0.8,3.1c0.5,0.7,1.3,1,2.4,1
			c1,0,1.8-0.3,2.4-1c0.5-0.7,0.8-1.7,0.8-3.1V664.5z"/>
		<path d="M625.4,670.6L625.4,670.6c0.1,2.1-0.4,3.5-1.5,4.5c-1,1-2.5,1.5-4.5,1.5c-2,0-3.6-0.6-4.7-1.8c-1.2-1.2-1.8-2.8-1.8-5
			v-5.5c0-2.2,0.6-3.8,1.7-5c1.1-1.2,2.7-1.8,4.6-1.8c2,0,3.6,0.5,4.7,1.5c1.1,1,1.6,2.5,1.6,4.5l0,0.1h-3.5c0-1.2-0.2-2-0.6-2.5
			c-0.4-0.5-1.1-0.7-2.1-0.7c-0.9,0-1.6,0.3-2,1c-0.4,0.6-0.7,1.6-0.7,3v5.5c0,1.3,0.2,2.3,0.7,3c0.5,0.6,1.2,1,2.2,1
			c0.9,0,1.5-0.2,1.9-0.7c0.4-0.5,0.6-1.3,0.6-2.5H625.4z"/>
		<path d="M637.4,668.6h-1v7.8h-3.6v-18.5h3.6v7.6h0.7l3.9-7.6h4.4l-5.3,8.5l5.7,10.1h-4.6L637.4,668.6z"/>
		<path d="M661.8,668.2h-5.7v5.4h6.8v2.8h-10.4v-18.5h10.3v2.8h-6.8v4.7h5.7V668.2z"/>
		<path d="M674,669v7.4h-3.6v-18.5h5.5c1.8,0,3.3,0.5,4.3,1.4c1.1,1,1.6,2.3,1.6,4c0,1-0.2,1.8-0.7,2.5c-0.4,0.7-1.1,1.3-1.9,1.7
			c1,0.3,1.7,0.9,2.1,1.6c0.4,0.7,0.6,1.7,0.6,2.8v1.3c0,0.5,0.1,1.1,0.2,1.6c0.1,0.6,0.3,1,0.6,1.2v0.3h-3.7
			c-0.3-0.3-0.5-0.7-0.6-1.3c-0.1-0.6-0.1-1.2-0.1-1.8v-1.3c0-0.9-0.2-1.7-0.6-2.2c-0.4-0.5-0.9-0.8-1.7-0.8H674z M674,666.2h1.9
			c0.8,0,1.4-0.2,1.8-0.7c0.4-0.5,0.6-1.1,0.6-2c0-0.9-0.2-1.6-0.6-2.1c-0.4-0.5-1-0.8-1.7-0.8h-2V666.2z"/>
	</g>
</g>
<g>
	<circle class="st2" cx="918.7" cy="307.5" r="74.9"/>
	<g>
		<path d="M879.7,319c-0.9,1.3-2.2,2.3-3.9,3.2c-1.7,0.9-3.9,1.4-6.5,1.4c-3.4,0-6.1-1-8.2-3c-2-2-3.1-4.8-3.1-8.4v-9.5
			c0-3.6,1-6.4,3-8.4c2-2,4.6-3,7.9-3c3.4,0,6,0.8,7.7,2.4c1.7,1.6,2.6,3.9,2.5,6.9l0,0.1h-5.7c0-1.6-0.4-2.8-1.1-3.6
			c-0.7-0.7-1.8-1.1-3.3-1.1c-1.6,0-2.8,0.5-3.7,1.6c-0.9,1.1-1.3,2.7-1.3,4.9v9.6c0,2.2,0.4,3.9,1.3,5c0.9,1.1,2.2,1.6,3.8,1.6
			c1.2,0,2.1-0.1,2.8-0.4c0.7-0.3,1.2-0.6,1.6-1.1V311h-4.8v-4.2h10.9V319z"/>
		<path d="M914.8,291.8v20.5c0,3.6-1,6.3-3.1,8.3c-2,2-4.7,3-8,3c-3.3,0-5.9-1-8-3c-2-2-3.1-4.8-3.1-8.3v-20.5h6.1v20.5
			c0,2.1,0.4,3.8,1.3,4.9c0.9,1.1,2.1,1.7,3.6,1.7c1.6,0,2.8-0.6,3.7-1.7c0.9-1.1,1.3-2.8,1.3-4.9v-20.5H914.8z"/>
		<path d="M934.4,318.4h11.7v4.7h-17.8v-31.4h6.1V318.4z"/>
		<path d="M964.6,311.8v11.4h-6.1v-31.4H969c3.1,0,5.6,0.9,7.5,2.8c1.8,1.8,2.8,4.3,2.8,7.3c0,3-0.9,5.4-2.8,7.3
			c-1.8,1.8-4.3,2.8-7.5,2.8H964.6z M964.6,307.1h4.4c1.4,0,2.4-0.5,3.1-1.5c0.7-1,1.1-2.2,1.1-3.7c0-1.5-0.4-2.8-1.1-3.8
			c-0.7-1-1.8-1.5-3.1-1.5h-4.4V307.1z"/>
	</g>
</g>
<g>
	<circle class="st2" cx="663.1" cy="515.4" r="105.1"/>
	<g>
		<path d="M636.8,473.9V491c0,3-0.9,5.3-2.6,7c-1.7,1.7-3.9,2.5-6.7,2.5c-2.7,0-5-0.8-6.7-2.5c-1.7-1.7-2.6-4-2.6-7v-17.2h5.1V491
			c0,1.8,0.4,3.2,1.1,4.1c0.7,0.9,1.8,1.4,3,1.4c1.3,0,2.3-0.5,3.1-1.4c0.7-0.9,1.1-2.3,1.1-4.1v-17.2H636.8z"/>
		<path d="M666.6,500.2h-5.1l-8.3-16.8l-0.1,0v16.7H648v-26.3h5.1l8.3,16.8l0.1,0v-16.8h5.1V500.2z"/>
		<path d="M683.4,500.2h-5.1v-26.3h5.1V500.2z"/>
		<path d="M710.4,477.9h-6.2v22.3h-5.1v-22.3h-6v-4h17.3V477.9z"/>
		<path d="M595.3,522.2h-6.2v22.3H584v-22.3h-6v-4h17.3V522.2z"/>
		<path d="M618.3,532.9h-8v7.6h9.6v4h-14.7v-26.3h14.7v4h-9.6v6.7h8V532.9z"/>
		<path d="M642.1,537.7c0-1-0.3-1.9-0.8-2.5c-0.5-0.6-1.5-1.2-2.9-1.8c-2.7-0.9-4.7-2-6.1-3.2c-1.4-1.2-2-2.9-2-5
			c0-2.2,0.8-3.9,2.3-5.3c1.6-1.4,3.5-2,5.9-2c2.5,0,4.6,0.7,6.1,2.2s2.3,3.4,2.3,5.8l0,0.1H642c0-1.4-0.3-2.4-0.9-3.1
			c-0.6-0.7-1.5-1.1-2.6-1.1c-1,0-1.7,0.3-2.3,1c-0.5,0.6-0.8,1.4-0.8,2.4c0,0.9,0.3,1.6,0.9,2.2c0.6,0.6,1.7,1.2,3.2,1.9
			c2.5,0.8,4.5,1.9,5.8,3.2c1.3,1.3,2,3,2,5.2c0,2.2-0.8,4-2.3,5.3c-1.5,1.3-3.6,1.9-6.1,1.9c-2.5,0-4.6-0.7-6.4-2.1
			c-1.8-1.4-2.6-3.5-2.6-6.3l0-0.1h5c0,1.6,0.3,2.8,1,3.6c0.7,0.7,1.6,1.1,2.9,1.1c1.1,0,1.9-0.3,2.5-0.9
			C641.8,539.5,642.1,538.7,642.1,537.7z"/>
		<path d="M673.7,522.2h-6.2v22.3h-5.1v-22.3h-6v-4h17.3V522.2z"/>
		<path d="M688.9,544.5h-5.1v-26.3h5.1V544.5z"/>
		<path d="M719.2,544.5h-5.1l-8.3-16.8l-0.1,0v16.7h-5.1v-26.3h5.1L714,535l0.1,0v-16.8h5.1V544.5z"/>
		<path d="M748.2,541c-0.7,1-1.8,1.9-3.2,2.7c-1.4,0.8-3.2,1.1-5.5,1.1c-2.8,0-5.1-0.8-6.8-2.5c-1.7-1.7-2.6-4-2.6-7v-8
			c0-3,0.8-5.4,2.5-7c1.7-1.7,3.9-2.5,6.6-2.5c2.9,0,5,0.7,6.5,2c1.5,1.4,2.2,3.3,2.1,5.8l0,0.1H743c0-1.4-0.3-2.4-0.9-3
			c-0.6-0.6-1.5-0.9-2.7-0.9c-1.3,0-2.3,0.5-3.1,1.4c-0.7,0.9-1.1,2.3-1.1,4.1v8c0,1.9,0.4,3.3,1.1,4.2c0.7,0.9,1.8,1.4,3.2,1.4
			c1,0,1.8-0.1,2.3-0.4c0.6-0.2,1-0.5,1.3-0.9v-5.3h-4v-3.5h9.1V541z"/>
	</g>
</g>
<g>
	
		<ellipse transform="matrix(0.8412 -0.5407 0.5407 0.8412 86.1707 484.1927)" class="st0" cx="867.4" cy="95.4" rx="76.3" ry="76.3"/>
	<g>
		<path d="M817.2,122l-2.7,1.7l6.3,9.7l-2.2,1.4l-6.3-9.7l-2.6,1.7l-1.1-1.7l7.6-4.9L817.2,122z"/>
		<path d="M827.3,120.1L827.3,120.1l-1.2-6.3l2.4-1.6l1.4,9.5l2.6,4.1l-2.2,1.4l-2.7-4.2l-7.9-5.1l2.4-1.6L827.3,120.1z"/>
		<path d="M839.7,115.5l2.7,4.2l-2.2,1.4l-7.4-11.5l3.8-2.5c1.2-0.7,2.3-1,3.4-0.7c1.1,0.2,2,0.9,2.7,2c0.7,1.1,0.9,2.2,0.7,3.3
			c-0.2,1.1-0.9,2-2.1,2.8L839.7,115.5z M838.6,113.7l1.6-1c0.5-0.3,0.8-0.7,0.8-1.3c0-0.5-0.1-1.1-0.5-1.6
			c-0.4-0.6-0.8-0.9-1.3-1.1c-0.5-0.2-1-0.1-1.5,0.2l-1.6,1L838.6,113.7z"/>
		<path d="M854.9,104.4l-3.5,2.3l2.1,3.3l4.2-2.7l1.1,1.7l-6.4,4.1l-7.4-11.5l6.4-4.1l1.1,1.7l-4.2,2.7l1.9,2.9l3.5-2.3L854.9,104.4
			z"/>
		<path d="M866.6,99.8c-0.3-0.5-0.6-0.7-1-0.9c-0.4-0.1-1-0.1-1.8,0c-1.4,0.3-2.6,0.4-3.6,0.3c-0.9-0.1-1.7-0.7-2.3-1.6
			c-0.6-0.9-0.8-1.9-0.5-3c0.3-1,1-1.9,2-2.6c1.1-0.7,2.2-1,3.3-0.8c1.1,0.2,2,0.8,2.6,1.9l0,0.1l-2.2,1.4c-0.4-0.6-0.8-1-1.3-1.1
			c-0.5-0.1-0.9,0-1.4,0.3c-0.4,0.3-0.7,0.6-0.7,1.1c-0.1,0.4,0.1,0.9,0.3,1.3c0.2,0.4,0.6,0.6,1,0.7s1.1,0.1,1.9-0.1
			c1.3-0.3,2.5-0.4,3.4-0.2c0.9,0.2,1.7,0.8,2.3,1.7c0.6,1,0.8,2,0.5,3c-0.3,1-1,1.8-2.1,2.6c-1.1,0.7-2.2,1-3.4,0.9
			c-1.2-0.1-2.1-0.8-2.9-2.1l0-0.1l2.2-1.4c0.5,0.7,0.9,1.1,1.4,1.3c0.5,0.1,1,0,1.6-0.4c0.5-0.3,0.8-0.7,0.8-1.1
			C867,100.7,866.9,100.3,866.6,99.8z"/>
		<path d="M880.6,90L880.6,90c0.9,1.3,1.1,2.4,0.9,3.4c-0.3,1-1,1.9-2.2,2.7c-1.2,0.8-2.4,1.1-3.6,0.8c-1.2-0.3-2.2-1.1-3.1-2.4
			l-2.2-3.4c-0.9-1.3-1.2-2.6-0.9-3.8c0.2-1.2,0.9-2.2,2.1-2.9c1.3-0.8,2.4-1.1,3.5-0.9c1.1,0.2,2,0.9,2.8,2.1l0,0.1l-2.2,1.4
			c-0.5-0.7-0.9-1.2-1.4-1.3c-0.4-0.1-1,0-1.6,0.4c-0.6,0.4-0.8,0.8-0.9,1.4c0,0.6,0.2,1.3,0.8,2.1l2.2,3.4c0.5,0.8,1.1,1.4,1.6,1.6
			c0.6,0.2,1.1,0.1,1.7-0.3c0.6-0.4,0.9-0.8,0.9-1.2c0.1-0.4-0.2-1-0.6-1.8L880.6,90z"/>
		<path d="M886.8,84.5l3,4.6l-2.2,1.4l-7.4-11.5l3.4-2.2c1.1-0.7,2.2-1,3.3-0.8c1,0.2,1.9,0.8,2.6,1.9c0.4,0.6,0.6,1.2,0.6,1.8
			c0,0.6-0.2,1.2-0.5,1.8c0.7-0.2,1.4-0.1,1.9,0.2c0.6,0.3,1.1,0.8,1.5,1.5l0.5,0.8c0.2,0.3,0.5,0.6,0.8,0.9
			c0.3,0.3,0.6,0.5,0.9,0.5l0.1,0.2l-2.3,1.5c-0.3,0-0.6-0.2-0.9-0.6c-0.3-0.3-0.6-0.7-0.8-1.1l-0.5-0.8c-0.4-0.6-0.8-1-1.2-1.1
			c-0.4-0.2-0.9-0.1-1.3,0.2L886.8,84.5z M885.7,82.8l1.2-0.8c0.5-0.3,0.8-0.7,0.8-1.1c0.1-0.4-0.1-0.9-0.4-1.5
			c-0.3-0.5-0.7-0.9-1.2-1c-0.4-0.2-0.9-0.1-1.4,0.2l-1.2,0.8L885.7,82.8z"/>
		<path d="M902,81.3l-2.2,1.4l-7.4-11.5l2.2-1.4L902,81.3z"/>
		<path d="M906.7,72.4l2.7,4.2l-2.2,1.4l-7.4-11.5l3.8-2.5c1.2-0.7,2.3-1,3.4-0.7c1.1,0.2,2,0.9,2.7,2c0.7,1.1,0.9,2.2,0.7,3.3
			c-0.2,1.1-0.9,2-2.1,2.8L906.7,72.4z M905.6,70.6l1.6-1c0.5-0.3,0.8-0.7,0.8-1.3c0-0.5-0.1-1.1-0.5-1.6c-0.4-0.6-0.8-0.9-1.3-1.1
			c-0.5-0.2-1-0.1-1.5,0.2l-1.6,1L905.6,70.6z"/>
		<path d="M920.1,55.9l-2.7,1.7l6.3,9.7l-2.2,1.4l-6.3-9.7l-2.6,1.7l-1.1-1.7l7.6-4.9L920.1,55.9z"/>
	</g>
</g>
<g>
	
		<ellipse transform="matrix(0.8919 -0.4523 0.4523 0.8919 76.4752 557.3231)" class="st2" cx="1203.9" cy="118.7" rx="88.8" ry="88.8"/>
	<g>
		<path d="M1153.9,150.1l0.1-0.1l-4.7-20.7l6.3-3.2l12.6,24.8l-4.8,2.4l-7.9-15.6l-0.1,0l3.4,17.9l-3.2,1.6l-12.3-13.3l-0.1,0.1
			l7.9,15.5l-4.8,2.4l-12.6-24.8l6.2-3.2L1153.9,150.1z"/>
		<path d="M1179,127.8l0.1-0.1l-1.2-12.9l5.2-2.7l0.9,19.6l4.5,8.8l-4.8,2.4l-4.6-9.1l-15-12l5.2-2.7L1179,127.8z"/>
		<path d="M1212.2,120.5c-0.5-1-1.1-1.6-1.9-2c-0.8-0.3-2-0.4-3.6-0.3c-3,0.4-5.4,0.3-7.3-0.1c-1.9-0.5-3.3-1.7-4.3-3.8
			c-1-2-1.1-4.1-0.3-6.1c0.8-2,2.4-3.6,4.6-4.8c2.4-1.2,4.7-1.5,6.8-0.9c2.2,0.6,3.8,2.1,4.9,4.4l0,0.1l-4.7,2.4
			c-0.7-1.3-1.4-2.1-2.3-2.5c-0.9-0.4-1.9-0.3-3,0.3c-0.9,0.5-1.5,1.1-1.7,2c-0.2,0.9-0.1,1.8,0.4,2.7c0.4,0.8,1.1,1.4,1.9,1.6
			c0.9,0.3,2.1,0.3,3.9,0.3c2.8-0.4,5.1-0.3,7,0.3c1.8,0.6,3.3,1.9,4.3,4c1.1,2.1,1.2,4.2,0.4,6.1c-0.8,1.9-2.4,3.5-4.8,4.7
			c-2.3,1.2-4.7,1.6-7,1.1c-2.3-0.5-4.2-2-5.5-4.8l0-0.1l4.7-2.4c0.8,1.6,1.7,2.5,2.6,2.9c1,0.4,2.1,0.2,3.3-0.4
			c1-0.5,1.7-1.2,1.9-2C1212.8,122.3,1212.7,121.5,1212.2,120.5z"/>
		<path d="M1243.4,101.6c0.6,1.1,1,2.2,1.2,3.3c0.2,1.1,0.3,2.1,0.2,3.1l4.8,1.9l-1.8,4.1l-4.6-1.8c-0.5,0.7-1.1,1.3-1.7,1.8
			c-0.7,0.5-1.4,1-2.3,1.4c-2.7,1.4-5.3,1.7-7.8,0.9c-2.5-0.8-4.4-2.7-5.9-5.6l-3.5-6.9c-1.5-2.9-1.8-5.6-1-8.1
			c0.8-2.5,2.6-4.4,5.3-5.8c2.7-1.4,5.3-1.7,7.8-0.9c2.5,0.8,4.5,2.7,5.9,5.6L1243.4,101.6z M1235.1,97c-0.9-1.8-2-3-3.2-3.5
			c-1.2-0.5-2.5-0.5-3.9,0.2c-1.4,0.7-2.2,1.7-2.5,3c-0.2,1.3,0.1,2.8,1,4.6l3.5,7c0.9,1.8,2,3,3.2,3.6c1.2,0.6,2.5,0.5,3.9-0.2
			c1.4-0.7,2.2-1.7,2.5-3c0.3-1.3-0.1-2.8-1-4.7L1235.1,97z"/>
		<path d="M1261.7,98.8l9.2-4.7l1.9,3.7l-14,7.1l-12.6-24.8l4.8-2.4L1261.7,98.8z"/>
	</g>
</g>
<g>
	<circle class="st1" cx="1217.9" cy="246.2" r="55.3"/>
	<g>
		<path d="M1178.5,249.6c0-0.7-0.2-1.3-0.5-1.7c-0.4-0.4-1-0.8-2-1.2c-1.8-0.6-3.2-1.4-4.1-2.2c-0.9-0.8-1.4-2-1.4-3.4
			c0-1.5,0.5-2.7,1.6-3.6c1.1-0.9,2.4-1.4,4-1.4c1.7,0,3.1,0.5,4.2,1.5c1.1,1,1.6,2.3,1.5,3.9l0,0.1h-3.4c0-0.9-0.2-1.6-0.6-2.1
			c-0.4-0.5-1-0.7-1.8-0.7c-0.7,0-1.2,0.2-1.5,0.7c-0.4,0.4-0.6,1-0.6,1.6c0,0.6,0.2,1.1,0.6,1.5c0.4,0.4,1.1,0.8,2.1,1.3
			c1.7,0.6,3,1.3,3.9,2.2c0.9,0.9,1.3,2.1,1.3,3.5c0,1.5-0.5,2.7-1.6,3.6c-1,0.9-2.4,1.3-4.1,1.3c-1.7,0-3.1-0.5-4.3-1.4
			c-1.2-0.9-1.8-2.4-1.7-4.3l0-0.1h3.4c0,1.1,0.2,1.9,0.7,2.4c0.5,0.5,1.1,0.7,2,0.7c0.7,0,1.3-0.2,1.7-0.6
			C1178.3,250.8,1178.5,250.3,1178.5,249.6z"/>
		<path d="M1201.9,247.8c0,0.8-0.1,1.6-0.3,2.2c-0.2,0.7-0.5,1.3-0.8,1.8l2.2,2.5l-2.2,1.8l-2.1-2.4c-0.5,0.2-1,0.4-1.5,0.5
			c-0.5,0.1-1.1,0.2-1.7,0.2c-2,0-3.5-0.6-4.7-1.8c-1.2-1.2-1.8-2.8-1.8-4.9v-5c0-2.1,0.6-3.7,1.8-4.9c1.2-1.2,2.7-1.8,4.7-1.8
			c2,0,3.5,0.6,4.7,1.8c1.2,1.2,1.8,2.8,1.8,4.9V247.8z M1198.4,242.8c0-1.3-0.3-2.3-0.8-2.9c-0.5-0.7-1.3-1-2.3-1
			c-1,0-1.8,0.3-2.3,1c-0.5,0.7-0.8,1.6-0.8,2.9v5c0,1.3,0.3,2.3,0.8,3c0.5,0.7,1.3,1,2.3,1s1.8-0.3,2.3-1s0.8-1.7,0.8-3V242.8z"/>
		<path d="M1213.1,251.5h6.7v2.7h-10.1v-17.8h3.5V251.5z"/>
		<path d="M1230.5,254.2h-3.4v-17.8h3.4V254.2z"/>
		<path d="M1248.9,239.1h-4.2v15.1h-3.5v-15.1h-4.1v-2.7h11.7V239.1z"/>
		<path d="M1264.5,246.4h-5.5v5.2h6.5v2.7h-10v-17.8h10v2.7h-6.5v4.6h5.5V246.4z"/>
	</g>
</g>
</svg>
